<?xml version="1.0" encoding="utf-8"?>
<!-- Generator: Adobe Illustrator 16.0.4, SVG Export Plug-In . SVG Version: 6.00 Build 0)  -->
<!DOCTYPE svg PUBLIC "-//W3C//DTD SVG 1.1//EN" "http://www.w3.org/Graphics/SVG/1.1/DTD/svg11.dtd">
<svg version="1.1" id="Layer_1" xmlns="http://www.w3.org/2000/svg" xmlns:xlink="http://www.w3.org/1999/xlink" x="0px" y="0px"
	 width="525.6px" height="1022px" viewBox="272.1 -231 525.6 1022" enable-background="new 272.1 -231 525.6 1022"
	 xml:space="preserve">
<title>Group 4</title>
<desc>Created with Sketch.</desc>
<g id="WIP-VISUALS">
	<g id="HOME-DESKTOP" transform="translate(-399.000000, -1944.000000)">
		<g id="Page-1_1_" transform="translate(0.000000, 1944.000000)">
			<g id="Group-4" transform="translate(399.000000, -231.000000)">
				<path id="Page-1" fill="#929D9E" d="M640.864,0l-0.478,0.776l-1.06,3.755l-0.448,0.539l-0.706,0.572l-0.606,0.298l-0.131-0.298
					l0.479-0.842l0.566-0.559l0.479-0.667l0.214-1.127l-0.203-1.383l-0.49-0.789l-0.566,0.021l-0.479,1.035l0.021,0.953
					l-0.672,1.182l-0.941,1.003l-0.78,0.417v0.757l0.625,0.808v1.544l-0.479,1.38l-0.83,0.383l0.332,1.222l0.124,1.451l-0.267,0.811
					l-0.875-0.708l0.224,0.729l0.087,0.86l-0.062,0.95l-0.248,1l0.793,0.607l0.772,0.211l1.497-0.19l0.725-0.092l0.98,0.092
					l0.414,0.248l0.382,0.343l0.414,0.232l0.485-0.061l0.728-0.86l-0.351-1.003l-0.707-1.135l-0.351-1.24l0.359-0.586l2.045-2.127
					V9.756l-0.313-0.293l-0.319-0.206l-0.345-0.143l0.978-0.053V8.304l-0.329-1.232l0.63-0.718l0.996-0.602l0.751-0.868
					l-0.396-0.095l-0.962-0.61l0.954-0.578l0.403-0.045l-0.163-1.251l-0.393-0.826l-0.541-0.486l-0.638-0.298l-0.709-0.063
					l-0.287-0.143L640.864,0z M627.422,11.484l-0.596,0.976l-0.487,1.122l-0.214,0.765l-0.11,1.04l0.039,0.916l0.285,0.396
					l0.118,0.298l-0.464,1.499l-0.149,0.667l0.163,1.377l0.69,2.689l0.169,0.475l-0.554,0.272l-0.783-0.708l-0.545-1.195
					l0.152-1.211v-0.633l-1.655,0.335l-0.435,2.174l0.608,9.537l0.688,2.225l1.17,1.259l1.663,0.38v-0.62l-0.527-0.667l0.061-0.61
					l0.296-0.401l0.171-0.05l0.245,0.8l0.606,0.24l1.218-0.071l1.186,0.533l0.396-0.245l0.15-1.256l-0.084-1.185l-0.227-0.874
					l-0.741-1.739l0.968-0.277l0.582-0.987l-0.011-1.24l-0.859-1.019l0.267-0.208l0.016-0.095l0.09-0.33l-0.777-0.069l-0.788-0.301
					l-0.604-0.636l-0.242-1.127l0.695,0.57l0.704,0.15l0.701-0.211l0.65-0.509l-1.139-2.829l-0.685-1.283l-0.588-0.75l0.985,0.14
					l0.836,0.72l1.607,1.918l0.38-1.042l0.3-1.095l-0.861-1.977l-0.037-0.963l0.532-1.238l-0.231-0.185l-0.195-0.298l-0.259-0.151
					v-0.747l0.307-0.232l0.081-0.419l-0.016-1.377l-2.161-0.192l-1.036,0.348l-0.571,1.169l-0.535-1.752L627.422,11.484z
					 M615.878,23.071l-0.105,1.037l0.861,0.971l-0.192,0.324l-0.145,0.433l-1.205-1.077l-1.352-0.768l-1.362-0.208l-1.216,0.602
					l0.15,0.462l0.079,0.388l-0.121,0.499l-0.44,0.736l0.192,0.158l0.517,0.602l-1.516,1.174l-0.556,0.14l-0.259,0.351l-0.677,1.758
					l-0.427,0.72l0.806,0.203l0.588,0.729l0.443,0.778l0.358,0.359l1.26,0.029l0.751,0.203l0.551,0.457l-1.637,1.013l-1.885-0.676
					l-1.642-1.718l-0.614-2.135l-0.664-1.098l-0.648,0.092l-0.591,0.794l-0.477,0.968l-0.121,0.609l0.023,0.708l-0.013,0.733
					l-0.262,0.708l-0.276,0.142l-1.236-0.142l-0.44,0.549l-0.45,1.179l-0.264,1.185l0.137,0.549l1.725,0.108l0.722-0.377
					l0.456-1.185l0.809,0.921l0.762,0.056l0.82-0.267l1.01-0.013l-0.651,0.699l-0.29,0.947l0.171,0.832l0.771,0.337l0.514-0.478
					l0.517-1.069l0.672-1.966l0.388,3.206l0.098,1.752l-0.146,1.246l0.485,0.562l0.68,0.203l1.55-0.011v0.684l-0.532,0.739
					l-0.169,0.969l0.185,0.966l0.517,0.771l0.549,0.124l0.545-0.362l0.946-1.137l0.304,2.177l1.175,0.768l1.466,0.322l1.196,0.86
					l-2.475-0.084l-0.894,0.319l0.622,1.134l-0.735-0.061l-0.309-0.14l-0.351-0.425l-1.015,2.689l1.395,1.425l-0.701,0.902
					l-0.693,1.159l-0.512-2.235l-1.102-1.343l-1.317-0.438l-1.149,0.531l0.206,1.019l0.134,0.406h-1.025l0.161,0.443l0.274,1.056
					l0.25,0.562l-0.211,0.24l-0.554,0.404l-0.258,0.103l-0.063-3l-0.675-0.789l-2.356,0.296v0.686h0.366v0.696l-1.724-0.696
					l0.372,1.38l-0.849,0.034l-0.591-0.606l-0.559-0.842l-0.725-0.652l-0.817-0.082l-0.956,0.291l-0.929,0.527l-0.729,0.646
					l-0.72,0.887l-0.197,0.581l0.553,1.961l0.47,2.61l0.43,0.572l1.012,0.177l0.403,0.185l0.076,0.443l0.051,0.499l0.279,0.364
					l0.479,0.161l1.091-0.161l1.513-1.019l0.715-0.24l0.316,0.887l0.25,1.003l0.593-0.14l0.591-0.934l0.258-1.362l0.219-0.807
					l1.221,2.103l0.633,0.509l-0.653,0.333l-1.489,0.398l-0.586,0.573l-0.271,0.662l-0.036,0.467l0.308,0.923l0.161-0.071
					l1.075,1.219l0.101,0.216l1.939,1.388l0.475,0.042l0.4-0.76l0.15-1.114l0.206-1.034l0.598-0.57l0.256,1.356l0.445-0.253
					l0.356-1.312l-0.034-1.848l0.64,0.056l0.454,0.346l0.98,1.034l0.34-1.436l-0.644-1.493l-0.667-1.198l-0.788-0.86l-0.962-0.491
					v-0.747l1.627,0.414l1.038,1.042l0.72,1.691l0.688,2.328l1.379-3.159l0.737-1.045l0.952,0.106v0.675l-0.504,0.52l-0.448,0.792
					L617.335,64l-0.725,2.639l-0.158,0.834l0.161,0.362l0.551,0.079l0.2-0.341l0.728-0.554l0.503-0.024l-0.785,2.092l-0.145,0.488
					l-0.042,0.385l0.216,0.99l0.282,0.084l0.3-0.105l0.259,0.398l0.261,2.712l-0.52,1.974l-0.735,1.953l-0.759,4.755L616.17,84.4
					l-0.535,1.554l0.29,1.779H614.6v0.675l0.43,0.303l0.896,1.119v0.549l-0.582-0.111l-0.562,0.169l-0.49,0.499l-0.403,0.802
					l0.298,1.562l-0.894,1.282l0.596,1.227l0.799,0.436l1.568-0.393l0.756,0.691v0.673l-0.577,0.892l0.095,0.755l0.398,0.122
					l0.382-1.021l0.841,1.539l0.185,0.496l0.482-0.47l0.195-0.757l-0.137-0.832l-0.541-0.723l0.438-1.328l0.124-1.158l-0.158-1.093
					l-0.403-1.158l0.138,0.211l0.208,0.464l0.701-1.377l0.424-1.876l0.108-2.09l-0.216-2.061l1.576,1.063l0.717,0.045l0.427-1.108
					l-1.112-2.845l-0.216-1.356l0.774,0.325l0.928-0.18l0.746-0.765l0.269-1.422l-0.479-0.008l-0.909-0.958l-0.479-1.316
					l0.854-1.125l-0.999-0.583l-0.396-0.103v-0.612l0.53,0.05l0.366-0.177l0.271-0.47l0.227-0.831l-0.717-0.745l0.894-0.023
					l0.521-0.684l0.512-0.504l0.825,0.586v-0.678h-0.372v-0.755h1.39V69.96l-1.703-1.43l0.709-1.75l-0.562-0.494l-1.067,0.478
					l-0.804,1.148l0.266-1.491l1.458-3.359l-0.651,0.222l-0.498,0.473l-0.917,1.356l0.435-1.417l0.267-0.708l0.324-0.67h-2.011
					V61.69l0.801-0.549l0.414-0.145l0.487,0.019v-0.631l-0.371-0.359l-0.277-0.562l-0.05-0.631l0.324-0.564l0.487,0.066l0.411,0.72
					l0.49,1.33l0.849,0.253l0.899-0.398l1.992-1.971l-0.309-0.253l-0.672-0.113l-0.38-0.259l-0.253-0.053l-0.369,0.533l-0.245-0.169
					l-0.14-0.415l-0.071-0.591l0.029-0.507l0.182-0.227l0.564-0.34l2.375-2.464l-1.294-1.021l-2.502-0.628l-1.03-1.04l0.751-0.319
					l3.883-0.425l0.435-0.459l0.253-0.998l0.119-1.053l0.034-0.557l-0.304-1.095l-0.65,0.016l-0.646,0.467l-0.281,0.295
					l-0.496,0.987l-0.369,0.494l-0.315-0.161l-0.062-0.831l0.288-0.757l3.516-4.235l0.712-1.742l-0.973,0.011l-0.938,0.599
					l-0.762,1.164l-0.448,1.66l-0.058-0.771l-0.087-0.343l-0.166-0.324l-0.438,0.718l-0.227,0.81l-0.15,0.757l-0.208,0.594
					l-0.412,0.419l-0.242-0.148l-0.166,0.063l-0.197,1.037h-0.372l-0.09-1.945l-0.596-0.422l-1.694,0.995v-0.75l0.52-0.446
					l0.197-0.246l-1.176,0.581l-0.601,0.158l-0.174-0.229l0.509-0.361l0.49-0.512l0.411-0.694l0.503-0.459l1.089,0.62l0.611-0.541
					l-0.648-0.628l0.09-0.23l0.245-0.454l-0.216-1.164l-0.38-0.789l-0.498-0.501l-0.63-0.304l0.313-1.116l-0.641-1.037l-0.912-0.551
					l-0.458,0.261l-0.2,0.665l-1.025,1.808l-0.451,0.602l-0.081-1.691l-0.49-0.264l-0.639,0.56l-0.524,0.765l0.709,0.934
					l2.359,1.824l-3.155,0.581l-1.365,1.042l0.068,1.818l-0.519,0.467l-0.58,0.271l-0.611,0.092l-0.638-0.082v-0.75l0.919-0.871
					l1.179-3.521l0.959-0.43v-0.747l-0.152-0.604l0.143-0.628l0.685-1.533l-0.298-0.62l-0.387,0.546l-0.425,0.417l-0.445,0.248
					l-0.472,0.105l1.015-3.394l-0.385-0.09l-0.203-0.185l-0.152-0.224l-0.274-0.193l0.559-0.074l0.222-0.185l0.234-0.485h-1.015
					l0.596-1.354l0.732-0.768l0.4-1.087l-0.377-2.327l0.49-0.145l0.271-0.412l0.071-0.644l-0.158-0.884l0.222-0.681l-0.026-0.823
					l-0.493-2.019L615.878,23.071z M635.062,22.314v0.757l1.672,3.494l1.083,1.644l1.357,0.335l-0.177-0.372l-0.11-0.327
					l-0.147-0.306l-0.28-0.309v-0.76l1.405-0.05l1.452,0.797l1.387,0.415l1.223-1.161l0.293-1.129l-0.185-0.871l-0.524-0.575
					l-0.778-0.19l-0.182,0.148l-0.256,0.316l-0.345,0.256l-0.435-0.04l-0.104-0.409l0.061-0.702l-0.073-0.67l-0.535-0.29H635.062z
					 M636.027,46.815l-0.147,0.153l-0.524,0.187l-1.756,0.177l-0.342,0.509l-0.462,0.359l-0.574,0.071l-0.556,0.272l-0.504,0.699
					L630.909,50l-0.098,0.509l-0.274,0.383l-0.25,0.551l0.938,0.604l1.961-0.62l1.357-1.562l0.854-1.272l0.678-0.824l0.327-0.575
					l-0.077-0.443L636.027,46.815z M627.678,66.865l-0.155,0.834l-0.398,0.24l-0.909-0.441l-0.946,0.143l-0.037,1.082l0.814,1.237
					l-0.145,3.243l0.458,0.678l1.435,1.106l0.509-0.248l0.353-2.151l0.361-0.844l0.343-1.077l0.121-1.425l-0.016-0.696l-0.617,0.557
					l-0.348-0.008l-0.166-0.874l-0.076-0.99l-0.229-0.549L627.678,66.865z M577.808,69.969l-0.774,0.543l-0.338,0.472l-0.103,0.729
					l0.337,0.594l0.928,0.876l1.189,0.533l0.745-1.119l-0.042-1.789l-0.211-0.842l-0.577-0.177L577.808,69.969z M615.667,74.368
					l-0.901,0.248l-0.059,0.44l0.322,0.491l0.121,0.612l-0.479,1.011l-0.219,1.383l-0.243,1.137l-0.643,0.895l0.09,0.433
					l0.698-0.636l0.777-1.28l0.126-0.609l0.059-0.607l0.084,0.256l-0.039,1.203l-0.211,1.048l-0.05,0.72l0.276,0.029l0.332-0.7
					l0.453-1.557l0.391-1.016l0.256-1.021l-0.175-0.747l-0.351,0.029l-0.4,0.562l0.071-0.486l0.337-1.333l-0.036-0.908l-0.267-0.021
					L615.667,74.368z M600.878,129.435l-0.923,0.995l-0.379,1.642l0.284,1.451l0.715-0.277l0.894-0.95l0.827-0.525v-0.731h-0.683
					l0.119-0.781l0.219-0.346l0.711-0.156l0.15-0.111l0.121-0.016l0.068-0.129l-0.026-0.478l-0.98-0.026L600.878,129.435z
					 M533.398,149.086l-1.389,2.053l-0.807,0.367l-1.584-0.385l-1.044,0.018l0.188,0.932l0.321,0.177l0.417-0.031l0.466,0.322
					l0.462,0.75l0.16,0.509l0.098,0.543l0.725,2.042l0.251,0.522l0.348,0.354l0.52,0.304l0.405,0.105l0.364-0.274l0.38-0.871
					l0.711,0.736l-0.461-1.042l-0.25-0.351v-0.736l1.367,0.188l1.337,0.778l2.456,2.42l-0.366,0.633l-0.189,0.57l-0.087,0.657
					l-0.062,0.868l1.145-1.639l0.601-0.48l1.005,0.002v-0.612l-0.446-0.66l-0.495-0.166l-0.532-0.061l-0.572-0.37l-0.276-0.543
					l-0.938-2.544l-0.696-0.401l-3.893-1.232v-0.673l0.327,0.066l1.027-0.066l-0.2-0.853l0.026-0.475l0.543-0.728l0.143-0.087
					l0.124,0.008l0.068-0.106l-0.029-0.425l-0.909-0.683L533.398,149.086z M561.058,153.44l-1.078,1.689l-0.729,0.24l-0.802-0.011
					l-0.754,0.14l-1.317,1.465l-1.632,0.33l-0.574,0.562l-0.158-0.354l-0.147-0.126l-0.374-0.116l1.254-1.567l0.733-0.673
					l0.735-0.486v-0.736l-1.244,0.111l-2.014,1.216l-1.199,0.005l0.743,1.105l0.279,0.288l-0.219,1.359l-0.361,0.335l-0.49-0.011
					l-0.601,0.309l-0.422,0.596l-0.819,1.494l-0.454,0.639l-0.648,0.491l-0.464,0.214l-0.342,0.506l-0.243,1.38l0.008,1.108
					l0.248,0.204l0.29-0.597l0.124-1.314l0.872,0.269l1.022-1.05l1.854-2.599l0.36,0.528l0.406,0.055l0.965-0.583v0.657
					l-0.124,0.322l-0.25,1.011l2.171-2.623l0.844-0.098l0.079,2.119l0.506-0.304l0.354-0.557l0.983-2.293l0.529-0.531l0.406-1.061
					L560.31,156l2.358-0.121l-0.142-0.926l-0.47-2.085l-0.316-0.258L561.058,153.44z M542.982,159.604l-0.198,1l0.138,1.24
					l-0.063,0.644l0.269,1.673l-0.055,0.34l-0.562,0.185l-0.485,0.301l-0.506,0.061l-0.635-0.546v2.045l0.762,0.188l0.647,0.552
					l0.446,0.926l0.182,1.291l0.385,0.377l0.867-0.116l1.463-0.56v-0.665l-0.825-0.082l-0.39-0.792l-0.108-1.259v-1.544l0.231-0.48
					l1.11-1.705l0.318-0.834l-0.318-0.892l-0.472-0.47l-0.588-0.121l-0.654,0.15v-0.657h0.372v-0.729l-0.812-0.079L542.982,159.604z
					 M527.321,165.143l-0.899,1.325l0.29,1.773l1.136,1.509l1.303,0.889l1.452,0.438l1.581,0.116l1.466-0.57l0.058-1.335
					l-0.152-1.533l0.835-1.209l0.177-0.082l0.147-0.016l0.077-0.137l-0.032-0.488l-0.743-0.417h-0.646l-2.04,0.496h-0.358
					l-0.322-0.079l-0.353-0.304l-0.18-0.433l-0.092-0.398l-0.059-0.188l-1.241-0.066L527.321,165.143z M549.073,168.54l0.522,0.38
					l1.531,1.694l0.321,0.581l-0.227,1.116l-0.622,0.351l-0.785,0.108l-0.741,0.343l-1.022,1.839l0.77,0.736l1.067-0.38
					l-0.135-1.539l0.865-0.715l0.999,0.14l0.743,1.101l0.11,2.195l1.06-0.66l2.169-0.34l0.886-0.99l-1.373-0.889l-0.309-0.586
					l0.316-1.114l0.14-0.116l0.14,0.005l0.079-0.111l-0.016-0.496l-1.154,0.678l-0.662,0.203l-0.59-0.164l-0.585-0.874l0.121-0.876
					l0.532-0.536l0.641,0.177l-0.425-0.483l-0.614-0.164l-1.378,0.047l0.147-0.364l0.161-0.301v-0.602l-0.701-0.092L549.073,168.54z
					 M518.518,169.679l-2.225,1.554l-1.317,2.871l0.311,4.362l-0.337,0.66l-0.791,2.887l0.672,3.222l1.492,2.475l1.685,0.646v-0.596
					l1.201-1.211l0.414-0.887l-0.256-1.261l-0.1-0.153l0.058-0.76l-0.177-0.599l-0.464-0.406l0.414-0.338l0.419-0.092l0.435,0.124
					l0.467,0.306v-0.652l-0.311-0.649l0.061-0.557l0.361-0.451l0.54-0.33l0.158,0.718l0.219,0.678l0.279,0.646l0.366,0.596v0.596
					l-0.796,1.335l-0.599,1.818l-0.155,2.079l0.527,2.151l1.254,1.229l2.989-0.509l1.226,0.53l0.245-1.061l0.599-0.33l1.542,0.14
					l-0.715-1.38l0.636,0.111l0.506,0.225l0.45,0.063l0.515-0.398l0.917,0.24l0.796-0.823l0.693-0.953l0.63-0.116l0.379,0.612
					l1.809,3.911l0.532,0.808l0.575,0.546l3.769,1.594l0.777,0.1l0.78-0.623l1.146-2.18l0.648-0.486l1.906-0.435l0.951-0.509
					l0.403-0.67l0.013-1.454l-0.063-1.108l-0.298-0.757l-0.706-0.393l-0.817,0.164l-1.663,1.132l-0.911,0.079l0.321,0.654
					l0.695,2.048l-0.954,0.24l-0.854-0.285l-0.717-0.794l-0.564-1.267l0.749-0.781l2.014-1.483l0.326-0.963l-0.258-0.61l-0.47-0.201
					l-1.138,0.082l-0.915,0.367l-0.814,0.715l-0.854,0.52l-1.016-0.219l0.093-0.457l0.14-1.129l0.105-0.449l-0.841,0.694
					l-0.559-0.541l-0.54-0.916l-0.786-0.504l-0.698,0.367l-0.659,0.61l-0.701,0.198l-1.86-1.768l-0.856,0.691l-0.772,1.188
					l-0.757,0.633l-1.871-0.248l-0.962-0.401l-0.746-0.673l0.886-0.295l1.131-1.016l0.988-1.425l0.419-1.543l0.461,0.208
					l2.947-1.206l-0.227-0.174l-0.237-0.28l-0.222-0.203l0.158-0.367l0.15-0.143l0.377-0.145l-2.834-1.631l-0.938-1.09l0.326-0.066
					l0.717-0.591l-0.466-0.354l-0.775-1.161l-0.517-0.404l-0.569,0.056l-0.614,0.293l-0.653,0.04l-1.731-1.779l-1.326-0.483
					l-2.398-0.116L518.518,169.679z M391.517,170.682l0.026,0.433l-0.382,0.274l-0.174,0.238l-0.116,0.288l-0.09,0.288l0.056,0.058
					l0.73-0.193l0.575-0.369l-0.177-0.137v-0.494l0.034-0.37l-0.282-0.126l-0.222-0.002L391.517,170.682z M515.015,190.479
					l-2.172,0.8l-1.154,1.156l-0.105,0.356l-0.746,1.887l0.164,0.974l0.396,0.071l0.506-0.084l0.484,0.409l0.232,0.114l0.596-0.565
					l0.345,0.127l0.256,0.583l-0.121,0.427l-0.192,0.417l0.058,0.544l1.018,1.963l0.456,0.465l0.569,0.425l0.498,0.533l0.211,0.85
					l0.952,2.478l0.253,0.446l4.651,0.008l2.465-0.742l1.23-1.887l-1.418-0.158l-2.907,1.422l-1.489,0.105l0.58-1.298l1.064-0.831
					l1.176-0.422l0.954-0.137v-0.594l-0.722-0.984l-0.414-0.285l-0.596-0.042v-0.726l0.706-0.588l-2.63-4.104l-0.973-0.56
					l-1.097-0.369l-1.705-1.718l-0.768-0.48L515.015,190.479z M532.563,199.461l-1.914,0.858v0.594h3.403v0.715l-0.58,0.436
					l-0.625,0.143l-0.622-0.143l-0.582-0.436l1.528,2.459l0.527,1.443l-0.664,0.687v0.72l2.375,2.557l1.106-0.734l0.332-0.987
					l-0.224-1.295l-0.54-1.625l0.614-0.546l-0.085-0.565l-0.266-0.649l0.084-0.86l0.293-0.396l1.409-0.923l0.069-1.161l-1.157-0.565
					l-2.288-0.179L532.563,199.461z M512.996,215.139l-1.136,1.549l0.529,1.306l0.81,0.977l0.906,0.673l0.844,0.367l-0.659,1.911
					l-1.365,0.018l-2.763-1.271l-2.846,1.021l-1.39,0.119l-1.212-1.14l0.194-0.143l0.491-0.515l-1.145-0.546l-1.6-0.053l-3.1,0.599
					l-1.911,0.926l-3.424,2.615l-2.146,1.027l-4.262,0.707l-4.262-0.707l-1.115,0.229l-0.276-0.253l-0.92-1.86l-0.074-0.227
					l-0.071,0.103l-0.453,0.116l-0.45,0.312l-0.641,1.609l-0.422,0.678l-0.564,0.364l-0.439-0.019l-1.041-0.346h-1.9l-0.559,0.295
					l-0.38,1.251l-0.435,0.293l-0.691-0.137l-0.943-0.491l-0.563,0.1l-0.327,0.356l-0.232,0.538l-0.295,0.583l-0.535,0.409
					l0.712,0.71l-1.128-0.322l-1.481-1.422l-0.991-0.325l-0.503,0.061l-1.331,0.655l-1.919,1.354l-0.147,0.214l-2.027,2.211
					l-0.208,0.116l-0.203,0.161l0.016,0.372l0.061,0.451l-0.061,0.383l-1.357,2.011l-0.838,0.847l-0.867,0.385l0.896-2.074
					l0.638-1.963l0.735-1.734l1.17-1.38l-0.11-0.958l0.034-0.058l0.076-0.337v-0.715l-2.445-1.839l-2.09-0.945l-2.144-0.419
					l-1.212,0.552l-0.512,1.351l-0.292,1.72l-0.546,1.649l-0.92,0.923l-1.004,0.48l-0.807,0.665l-0.332,1.48l-0.475,0.267
					l-2.955,3.335l-0.933,0.147l0.477-1.293l0.949-1.797l0.896-2.396l1.766-1.75l0.577-0.773l0.206-0.594l0.202-0.874l-0.047-0.794
					l-0.517-0.351l-0.638-0.193l-1.395-1.1l-0.833-0.428l-1.536-2.063l-0.878-0.768l0.247,1.61l-0.273,0.66l-0.436,0.604
					l-0.216,1.391l0.008,1.026l-0.092,0.969l-0.398,0.865l-0.912,0.75l0.324-0.707l0.217-0.721l0.129-0.833l0.039-1.061l-0.142,0.1
					l-0.298-1.29l-0.264-1.486l-0.006-0.509l-0.888-1.161l-1.176-0.781l-6.404-1.443l-0.839,1.011l-0.326,1.639l-0.177,1.95
					l-0.391,1.971h0.338l-0.585,1.47l-0.738,0.826l-2.641,1.578l-0.391,0.449l-0.103,0.821l0.011,1.729l5.469,4.837l-1.483-1.058
					l-1.233-0.581l-2.752,1.639l0.472,0.485l0.211,0.156l0.337,0.074v0.639l-0.158,0.035l-0.492-0.035v0.718l0.562,0.087
					l0.529-0.056l0.501-0.258l0.45-0.491l0.341,0.718l-0.158,0.768l0.472,0.625l1.381,1.135l-2.08,0.079l-2.891-2.016l-0.312-0.092
					l-0.658-0.412l-0.377-0.087l-0.19,0.216l0.008,0.552l0.063,0.625l-0.05,0.493l-0.475,0.995l-0.343,0.937l-0.021,0.95
					l0.492,1.005h-0.985l0.108,0.684l0.16,0.718l0.383,1.19l0.187,0.182l0.936,1.459l0.063,0.358l0.514,0.501l1.474,2.219
					l0.735,0.507l0.546,0.201l1.018,0.889l0.506,0.201l0.529-0.188l0.567-0.836l0.402-0.267l0.983-0.005l3.157,0.654l-0.672,0.48
					l-1.42,0.261l-0.659,0.552l1.357,1.045l0.569,0.581l0.487,1.005l-3.432-2.631l-0.762-0.222l-2.485,0.222l-0.672-0.306
					l-1.516-1.343l-0.886-0.293l-0.445,0.169l-0.69,0.451l-0.67,0.625l-0.374,0.697l-1.047-0.86l-1.086-0.146l-1.057,0.367
					l-1.977,1.343l-0.838,0.235l-0.847-0.235l-2.093-1.462l-1.151-0.509l-0.807,0.269l-0.042,1.581l2.298,3.57l0.493,0.356h0.646
					l-0.107,0.443l-0.161,1.114l-0.103,0.441l0.475,0.166l0.442,0.274l0.411,0.377l0.369,0.47l-0.369,0.583l0.695,0.552l0.786,0.169
					l1.637-0.082v0.702l-0.67,0.396l-1.423,0.34l-0.656,0.499l1.02,0.699v0.644h-0.677l0.337,0.665l0.242,0.773l0.037,0.857
					l-0.247,0.918h0.308l-1.191,1.536l-1.099-0.145l-1.064-0.361l-1.092,0.902l-1.188-2.467l-1.896-0.546l-0.943,1.283l1.643,3.016
					v0.641l-0.277,0.319l-0.134,0.298l-0.098,0.314l-0.169,0.409l2.048-0.129l0.978,0.343l0.741,1.063l-0.227,0.253l-0.029,0.077
					l-0.113,0.259l1.271,0.258l2.053,2.628l1.474,0.372l0.709,0.678l1.6,0.322l0.604,0.546l0.451,1.169l0.076,1.095l-0.393,0.686
					l-0.978-0.011v0.697l1.204,0.33l4.989,4.394l0.261,0.623l0.127,0.66l0.29,0.902l0.354,0.847l0.287,0.494l-1.021-0.663
					l-1.437-2.591l-2.103-0.984l-1.819-1.799l-0.622-0.407l-0.482-0.19l-1.13-0.818l-0.633-0.206l-0.527,0.093l-0.946,0.499
					l-0.566,0.045l-1.083-0.604l-1.397-2.066l-0.946-0.599l-0.279,1.129l-0.363-0.068l-0.372-0.428l-0.321,0.071l-0.219,0.636
					l0.026,0.248l0.121,0.219l0.071,0.522l0.403,0.393l3.197,1.454l2.182,2.28l1.461,0.676l0.563,0.575l0.73,1.312l-3.598-1.422
					l-1.68-1.053l-1.404-1.678l-0.683-0.589l-2.262-0.995l-0.638-0.013l-0.475,0.992l-0.59,2.673l-0.606,0.805l0.311,0.636
					l-1.6-0.198l-2.035-1.098l-1.409-1.887l0.289-2.56h-1.834l-0.546-0.375l-0.72-0.913l-0.4,0.739l-1.157,1.565l-0.474,0.897
					l0.137,0.361l0.15,0.167l0.388,0.103l-0.525,0.947l0.641,1.069l1.924,1.826l0.681,1.446l-0.087,1.196l-0.2,1.319l0.315,1.836
					l-0.922-0.591l-0.479-0.14l-0.638,0.029l0.385,1.126l0.231,0.467l0.377,0.436l-0.814,0.032l-0.77-0.38l-0.646-0.709
					l-0.496-0.971l-0.374-1.37l-0.335-1.884l-0.155-1.855l0.185-1.267l-1.221-0.805l-1.302-0.417l-1.31,0.026l-1.263,0.493
					l-0.651,0.56l-0.525,0.778l-0.366,0.921l-0.187,0.995l0.061,1.174l0.432,1.887l-0.129,0.763l0.089,1.098l-0.245,2.412
					l0.156,1.006l4.153,0.979l0.58,0.359l0.496,0.596l0.326,0.62l0.354,0.47l0.551,0.158l-0.388,1.024l-0.521,0.712l-0.63,0.09
					l-1.466-1.66l-0.954,0.053l-1.848,1.058v0.697l0.285,0.844l-1.017,1.143l-0.285,1.127l0.261,1.153l0.614,0.383l0.77,0.103
					l0.759,0.322l0.925,1.483l0.628,1.834l0.866,1.446l1.664,0.312l-0.42,0.929l-0.258,0.282l1.694,2.016l1.382-1.214l2.208-0.319
					l2.254,0.533l1.518,1.285l-0.21,0.607l-1.16,0.04l-2.062-0.356l-3.581,0.628l0.147,0.446l0.107,0.457l0.153,0.485l0.267,0.509
					l-0.549-0.143l-1.491-1.063l-0.438-0.354l-0.861-1.338l-0.427,0.372l-0.849-0.639l-2.684-2.784l-0.859-0.567l-0.88-0.169
					l-0.88,0.356l0.103,0.419l0.161,1.061l0.108,0.422l-0.775-0.008l-0.213,0.728l0.021,1.172l-0.058,1.327l-0.195,0.586
					l-0.678,1.565l-0.147,0.67l0.108,1.192l0.467,1.61l0.105,0.981l0.327,0.227l1.544,0.454l0.514,0.298l-0.533,0.61l-0.174,0.617
					l0.026,1.24l0.082,0.293l0.464,0.715l0.134,0.314l-0.079,0.285l-0.232,0.266l-0.243,0.156l-0.126-0.076l0.849,3.631l1.155,0.588
					l2.598-0.383l1.258-0.646l3.348-4.457l0.79-0.763l0.227-0.037l0.09,0.618l0.425,1.137l0.113,0.799l-0.433,0.607l-1.212,0.797
					l1.446,0.232l1.205,0.575l1.154,0.177l1.291-0.984l2.267-3.222l1.339-1.398l0.849,0.198l-0.427,2.607l-2.217,2.08l-5.568,2.673
					l-1.168,0.206l-0.248-0.322l-0.287-0.61l-0.351-0.375l-0.461,0.393l-0.425,0.488l-1.075,0.673l-0.414,0.433l-1.159,2.848
					l-0.203,0.306l0.435,1.256l1.018,0.095l2.148-0.718l0.97,0.216l1.897,0.889l1.047,0.15l0.996-0.346l1.745-1.261l0.858-0.282
					l0.583-0.578l0.633-1.127l0.833-0.762l1.207,0.525v0.686l-1.199,0.472l-1.205,1.312l-0.641,1.362l0.467,0.628l0.482,0.261
					l0.493,0.62l0.743,1.343l0.456,0.417l2.077,0.501v0.625l-1.948,0.628l-1.682-1.288l-1.568-1.9l-1.603-1.208l-1.721,0.372
					l-2.082,1.346l-1.205,1.747l0.926,1.562l-0.657,1.267l-1.739,2.52l-0.353,1.567l0.621,0.934l4.167,1.274l0.57,0.544l1.275,1.623
					l0.351,0.343l0.658-0.108l1.168-0.467l4.181-0.739l0.982,0.631v0.684h-0.342l-0.359-0.169l-0.819-0.227l-0.827,0.047
					l-0.375,0.665l-0.247,0.288l-4.897-0.061l-1.004-0.543l-2.114-1.612l-1.244-0.509l-0.88,0.528l-0.512,0.433l-1.471-0.156
					l-0.608,0.061l-0.351,0.335l-0.591,1.013l-2.077,2.713l-0.743,1.506l0.545,0.689l0.527,0.182l0.846,0.842l0.512,0.229
					l0.548-0.09l1.015-0.478l0.445-0.063l1.089,0.8l-0.082,1.269l-0.185,1.169l0.752,0.512l1.017,0.391l1.052,0.707l1.084,0.309
					l1.111-0.789l0.667,0.351l0.738-0.25l0.799-0.464l0.859-0.253v0.618l-2.398,1.214l-2.704,0.66l-1.635-0.259l-0.777-0.372
					l-0.709-0.562l-0.577-0.763l-0.988-1.781l-0.475-0.567l-1.292-0.258l-1.534,0.557l-1.394,1.003l-0.875,1.129l-0.541,1.802
					l-0.445,2.114l-0.554,1.876L389,378.561l1.001,1.042l0.388,0.253v0.683l-1.761,0.111l-1.668,0.449l2.304,0.639l4.694-1.061
					l2.246,0.422l-1.982,2.204l-0.427,0.916l1.958,0.522l1.007,0.024l0.788-1.523l0.817-0.43l0.915-0.106l0.658,0.317l-1.604,1.646
					l-2.048,0.913l-5.161,0.755l-0.677,0.688l0.01,1.005l0.957,1.148l3.734,1.86l-0.991-0.282l-1.271-0.351l-1.123,0.383
					l-0.722,0.918l-0.546-0.454l-0.583-0.24l-0.611-0.055l-0.611,0.082v0.668l0.891,0.145l0.511,0.678l0.243,0.963l0.053,0.977
					l-0.427-0.343l-2.631-1.174l-0.746-0.564l-0.469-0.628l-0.503-0.507l-0.854-0.214l-0.722,0.293l-1.753,1.317l-0.59,0.303
					l-7.654,0.832l-0.643,0.543l-1.091,1.723l-0.369,0.219l-0.334-0.167l-0.245,0.04l-0.098,0.868l0.053,0.594l0.14,0.541
					l0.213,0.496l0.274,0.504l0.648,0.636l1.154,0.667l1.233,0.261l0.901-0.609l0.991-0.974l1.254-0.119l3.669,1.027l3.456-0.27
					l0.638,0.167l1.115,0.802l0.641,0.261h0.532l1.877-0.554l5.43-3.029l2.053,0.554l2.504,1.604l1.097,0.195l4.62-0.62
					l-1.052,0.705l-1.463,0.398l-2.651,0.193l-1.249-0.269l-3.134-1.647l-1.223,0.143l-5.269,3.568l0.013,0.9l0.493,0.617
					l1.197,0.958l-0.372,0.678l-1.378-1.364l-1.608-0.829l-1.719-0.356l-2.482,0.167l-0.728,0.261l-0.503,0.699l-0.082,1.422
					l0.316,0.705l7.425,6.164l3.015,0.652l1.85-2.588h0.372l-0.09,0.889l-0.208,0.728l-0.756,1.462l0.606,0.71l0.869,0.612
					l0.944,0.417l0.817,0.164l0.537,0.259l0.575,1.192l0.442,0.343l0.34-0.15l3.374-2.747l3.294-3.963l1.993-3.027l0.535-0.631
					l0.59-0.457l0.636-0.179l0.458-0.385l0.72-1.649l0.504-0.377l1.012-0.195l0.791-0.551l1.426-1.789l0.551-1.114l0.408-0.52
					l1.05-0.401l0.461-0.815l0.438-0.179l0.88-0.077l0.743-0.338l0.651-0.773l0.659-1.341l0.163-0.731l0.093-0.81l0.171-0.667
					l0.425-0.277l0.521-0.134l0.611-0.354l0.522-0.507l0.219-0.581l0.416-0.736l2.952-2.646l-0.828,1.776l-0.909,1.504l-3.363,3.694
					l-0.311,0.47l-0.504,1.256l0.014,0.538l3.877,1.874l8.202-1.813l-0.854,0.602l-4.015,0.929l-1.953,1.312l-1.033,0.306
					l-2.146-0.676h-1.114l-1.466,1.319l-0.653,0.063l-1.26-0.153l-1.112,0.979l-0.433,0.261v0.673l0.957,0.675l-0.617,1.156
					l-2.045,1.878l-0.438,0.602l-1.289,2.483l-0.137,0.354l-0.166,0.755l-0.19,0.43l-0.303,0.385l-0.232,0.195l-0.182,0.29
					l-0.152,0.667l0.669,0.093l0.81,0.921l0.593,0.282l0.604-0.171l1.078-0.911l0.546-0.214l0.835-0.667l0.206-0.063l0.999,0.063
					l0.556-0.134l1.666-1.048l-0.52,0.802l-0.624,0.467l-1.263,0.58l-2.378,1.858l-0.922,0.409l-1.126,0.032l-1.218-0.486
					l-1.188-1.193l-0.279,1.283l-1.766,4.312l0.685,0.572l0.944-1.963l0.587-0.794l0.678-0.33l0.817,3.444l0.801,0.583l1.392-1.259
					l5.301,1.24l2.119-0.258l0.548-0.588l1.154-1.929l2.04-1.847l0.765-1.391l0.548-1.602l0.651-1.333l1.094-0.609l-1.049,1.488
					l-1.634,3.692l-3.155,4.335l-1.339,1.161l-1.663,0.409l-4.02-1.146l-5.013,0.443l-1.666,0.823l-1.26,1.776l0.211,0.747
					l-0.396,0.425l-0.648,0.309l-0.53,0.356l-0.385,0.718l-1.007,2.974l1.102,0.251l2.159-0.729l1.193-0.084v0.562l-2.493,1.005
					l-1.347,0.161l-0.92-0.56l-0.951,1.061l-0.479,1.164l-0.612,3.352l-0.545,1.868l-0.119,1.005l0.296,0.792l0.49,0.092
					l0.479-0.454l0.469-0.575l0.448-0.296l2.071-0.657l0.67,0.293l0.316,0.649l-0.095,0.654l-0.567,0.293l-0.97,0.229l-1.08,0.639
					l-0.606,0.947l0.45,1.185l-0.94,1.433l-0.852,1.71l-0.643,1.831l-0.319,1.842l1.149-0.939l0.999-1.549l1.128-1.393l1.51-0.438
					l-0.303,1.225l-0.34,0.8l-1.603,2.533l-0.2,0.594l0.092,0.765l0.321,1.398l0.146,0.148l0.303,0.214l0.335,0.343l0.232,0.573
					l-0.077,0.53l-0.393-0.05l-0.419-0.296l-0.127-0.185l-0.013-0.127l-0.295-0.206l-0.401-0.195l-0.318-0.084l-0.321,0.18
					l-0.124,0.369l-0.077,0.415l-0.158,0.311l-3.739,5.484l-1.821,3.646l-0.277,2.362l-0.192,0.53l-0.084,0.628l0.147,0.52
					l0.501,0.195l0.185-0.28l0.83-1.594l-0.034-1.963l2.146-2.515l0.301-1.644l0.79-0.488l0.664-0.615l0.628-0.348l0.638,0.288
					l-0.279,0.454l-0.298,0.309l0.211,0.401l-0.419,1.106l-5.454,8.544l0.108,0.971l0.309,1.026l0.354,0.591l0.45-0.01l0.898-0.945
					l1.305-0.688l1.7-2.016l1.115-0.583l-0.759,0.992l-0.896,0.86l-0.751,0.929l-0.313,1.185l-0.312,0.72l-2.101,3.193l0.256,0.696
					l0.05,2.373l0.374,1.214l0.686,0.881l0.672,0.414l1.368,0.518l-0.346,1.153l0.657-0.029l0.601-0.253l1.773-1.462l4.823-5.504
					l-0.925,2.66l-1.55,2.335l-1.721,1.625l-1.432,0.628l-0.659,0.557l-0.854,1.293l-0.732,1.52l-0.319,1.216l-0.358,1.003
					l-2.701,2.306l0.569,1.216l-0.19,1.758l-1.057,3.103l-1.176,2.612l-0.187,0.998l0.142,0.625l0.349,0.588l0.213,0.649
					l-0.703,2.583l0.081,1.968l0.245,1.987l-0.013,1.834l-0.488,0.913l-1.895,2.246l-1.395,1.174l-0.269,1.708l0.103,1.984
					l0.588,3.752l0.532,1.063l0.878,0.343l1.449,0.018l0.575-0.164l1.12-0.829l0.527-0.237l0.585,0.029l0.978,0.488l0.478,0.127
					l1.17-0.243l1.112-0.573l0.98-0.779l0.816-0.852l1.647-2.33l0.498-1.33l-0.582-0.57l-0.045-0.362l-0.807-1.984l-0.467-0.66
					l-0.447-0.467l-0.504-0.214l-0.625,0.09v-0.539l1.157-0.726l0.794-1.19l1.112-2.948l0.219-0.203l0.221,0.105l0.172-0.045
					l0.065-0.707l-0.053-1.668l0.053-0.47l0.309-0.852l1.055-2.095l-0.324-1.655l0.588-0.515l0.788-0.327l0.308-1.158l-0.387-0.9
					l-0.602-0.171l-0.453-0.518l0.082-2.021l-0.104-0.256l-0.194-0.403l-0.095-0.377l1.067-0.823l0.123-0.721l0.124-1.557
					l0.127-0.734l0.355-1.1l0.475-0.974l0.551-0.836l2.282-2.575l0.757-0.544l1.692-0.559l0.688-0.581l0.343-1.219l-0.448-2.262
					l-1.244-2.103l-2.759-3l0.231-0.182l0.24-0.293l0.234-0.188l-0.496-0.446l-0.21-0.101v-0.612h0.342v-0.546l-0.605-0.594
					l-0.177-0.691l-0.034-0.834l-0.209-1.026l-0.495-1.76l-0.282-0.071l-0.743-0.393l-0.177-0.201l0.367-4.787l-0.032-0.583
					l0.016-0.557l0.174-0.472l0.367-0.211l0.115,0.562l0.006,0.775l0.042,0.412l0.931,0.306l1.233,0.101l1.08-0.333l0.459-1.005
					l0.15,0.084l0.306-1.082l0.248-1.259l-0.019-0.449l0.374-0.258l0.906-0.079l0.448-0.272l4.117-6.352l5.938-4.064l0.479-0.641
					l1.191-3.138l0.54-1.114l0.746-0.681l0.841-0.38l2.026-0.164l0.847-0.443l1.842-2.061l0.867-0.602l-0.975,2.356l-1.732,1.296
					l-1.905,0.839l-1.508,1.011l-0.796,1.182l-1.769,4.093l-0.475,0.515l-2.087,1.642l-2.895,1.224l-5.429,9.542l-1.224,1.404
					l0.622,2.604l0.087,0.757l-0.11,0.757l-0.49,0.987l-0.108,0.696l-0.042,1.623l0.042,0.815l0.161,0.636l0.382,0.454l0.396,0.216
					l0.301,0.325l0.303,2.214l0.52,0.694l1.679,0.615l2.18,1.261h0.904l-0.348-1.573l-0.496-1.364l-1.196-2.507l1.465-2.148
					l0.237-0.665l0.105-0.884l0.309-1.243l0.44-1.177l0.503-0.665l-0.005,1.86l0.459,1.137l3.286,2.71l0.946,0.333l0.417-0.86
					l-0.377-1.863l-1.9-4.842l-0.783-1.459l0.799-0.633l0.377,0.739l0.258,1.132l2.001,2.678l0.185,1.773l0.511,2.536l0.709,2.272
					l0.799,0.974l1.579,0.343l0.571-0.113l0.712-0.776l0.479-0.916l0.217-0.818l0.145-0.866l0.24-1.045l0.424-0.787l0.575-0.705
					l0.49-0.868l0.179-1.277l-0.234-1.024l-0.517-0.697l-0.656-0.451l-0.633-0.312v-0.607l0.854,0.24l0.804,0.467l0.746,0.264
					l0.685-0.364l-0.269-1.013l-0.103-1.195l0.002-1.736l-0.216-1.805l0.127-0.673l0.63-0.264l0.147-1.386l-0.451-3.071l-0.69-3.138
					l-0.569-1.599l0.672-0.818l0.675,0.24l0.52,0.926l0.211,1.209l-0.087,2.731l0.374,0.702l1.073-0.058l0.703-1.048l2.86-5.995
					l0.685-0.945l0.533-0.401l0.234,0.338l-0.225,1.288l-3.537,5.734l-1.939,5.127l-0.074,0.749l0.074,3.391l0.147,1.615l0.54,1.251
					l1.171,0.509l1.212,0.019l0.912-0.169l0.324-0.723l-0.562-1.617l-2.361-3.586l-0.303-1.108l-0.035-0.897l0.256-0.668
					l0.741,0.185l0.028,0.425l0.646,2.676l0.577,1.137l0.782,1.182l0.915,0.947l2.021,0.773l2.541,3.243l2.161,1.383l7.388,1.594
					l-1.21,0.823l-8.292-1.309l-1.07-0.67l-0.568,0.258l-0.833-0.147l-3.171-1.497l-0.672-0.084l-0.937,0.2l-1.56,0.654
					l-1.131,0.984l-0.717,1.557l-0.304,2.375l0.501,6.344l0.24,0.908l0.298,0.765l0.324,1.061l0.208,2.987l-0.757,1.908
					l-2.206,2.346l0.976,1.428l1.615,1.472l2.879,1.914v0.662l-0.361,0.81l0.458,0.333l1.608,0.056l2.717,1.201l1.455,1.229
					l1.073,1.834l0.245,1.953l-1.044,1.612l1.811,0.607l1.202,1.52l0.448,2.127l-0.43,2.385l-1.199,1.745l-3.316,1.581l-1.604,1.47
					l-0.475,0.998l-0.411,2.037l-0.298,0.839l-0.4,0.52l-0.909,0.771l-1.65,2.069l-0.276,0.528l-0.085,0.829l0.127,1.892
					l-0.042,0.863l-0.192,0.776l-1.142,2.95l-0.037,0.436l0.014,0.929l-0.098,0.285l-0.515,0.14l-0.236,0.193l-3.231,4.42
					l-2.046,1.33l-0.973,1.002l-0.416,1.607l-0.132,1.771l-0.348,1.177l-0.881,2.119l-0.205,0.758l-0.103,0.58l-0.026,1.929
					l0.155,1.021l0.701,1.713l0.163,0.836l0.282,0.8l1.787,3.631v0.581l-0.203,0.303l-0.169,0.344l-0.87,0.918l-0.888-0.147
					l-0.828-0.771l-0.653-0.942l-0.234-0.8l0.079-2.09l-0.037-0.966l-0.248-0.897l-0.363-0.833l-0.749-1.212l-0.184-0.482
					l-0.475-0.963l-0.498-0.449l-0.229,1.006l-0.237,0.269l-0.551,0.079l-1.052-0.068l-0.701,0.691l-0.346,1.567l-0.147,3.13
					l0.256,3.438l0.917,3.071l1.435,2.62l4.738,5.742l0.999,0.465l0.487,0.504l0.314,1.103l0.219,1.201l0.219,0.786l0.329,0.312
					l0.406,0.169l0.933,0.108l-0.216,0.649l0.005,0.594l0.206,0.575l0.377,0.538l-0.588,0.786l-0.04,1.428l0.306,1.338l0.478,0.612
					l1.028,0.264l2.132,1.153l1.075,0.285l-0.646-1.396l-0.021-0.422l0.014-0.8l0.264-1.557l-0.019-0.744l-1.429-1.248l-0.793-2.029
					l-0.567-2.04l-0.343-0.934l-0.5-0.375l-0.388-0.893l-0.242-1.002l-0.093-0.726l-0.008-0.634l0.058-0.44l0.198-0.518l0.438-0.768
					l0.751-1.101l0.996-1.061l1.137-0.884l1.193-0.547l1.893-0.028l1.064,0.464l0.926,2.433l1.069,0.679l2.249,0.633l5.869,3.682
					l1.647,1.623l2.881,4.465l0.445,0.349l1.766-0.048l0.473,0.198l1.262,0.976l1.058,0.465l1.136,0.166l0.521-0.18l0.33-0.403
					l0.245-0.406l0.273-0.18l0.338-0.707l-0.259-1.631l-0.16-1.797l0.63-1.267l-0.712-1.243l0.245-1.059l0.433-0.974l-0.153-1.11
					l-0.604-0.815l-0.63-0.451l-0.714-0.192l-0.805-0.048l-0.324-0.578l-0.39-1.256l-0.459-2.026l0.138-0.935l0.337-1.082
					l0.393-0.89l0.306-0.358l0.802,0.206l0.343,0.602l0.237,0.947l0.472,1.237l0.435,0.609l0.577,0.46l3.711,1.797l0.746,0.095
					l0.804-0.409l1.215-1.538l0.736-0.473l-0.433,3.457l1.753,2.929l2.546,1.676l1.939-0.351l-0.477-1.352l0.169-1.475l0.568-1.232
					l0.728-0.642l0.021,0.396l0.69,0.306l0.103,0.892l-0.202,1.122l0.1,0.879l-0.021,0.071l-0.143,0.316l-0.14,0.234l0.115,0.225
					l0.167,0.127l0.163,0.042l0.2,0.09v0.649l1.55,0.124l2.367-0.341l3.905-2.972l2.6-1.177l0.484-0.403l-1.694-1.716l0.683-0.554
					l0.329-0.09l-0.107-0.33l-0.228-0.902l0.772-0.752l0.591-0.969l0.185,0.274l0.084,0.256l0.068,0.649l-0.245-0.388l-0.247-0.129
					l-0.562,1.058l0.261,0.549l0.311,0.354l0.369,0.056l0.456-0.314l-0.179-0.171l-0.053-0.026l-0.111-0.446l3.532,0.573
					l1.078-1.832l1.289-0.203l4.651,0.454l0.817-0.485l0.566-1.398l0.09-1.409l-0.093-1.863l-0.25-1.721l-0.396-0.926l0.648-2.367
					l1.424,1.279l0.779,0.307l0.852-0.398l-0.087-0.37l-0.023-0.076l-0.048-0.016l-0.152-0.177l0.714-0.293l0.735,0.259l0.78,0.438
					l0.833,0.235l15.849,1.18l4.212-1.146l0.239-0.061l1.213,0.554v0.652l-0.943-0.383l-0.768,0.321l-0.767,0.491l-0.952,0.156
					v0.599h3.43l-0.881,0.631l-4.141,1.251l-1.007-0.074l-1.85-0.617l-0.394-0.317l-0.287-0.374l-0.366-0.304l-0.622-0.195
					l-3.134,0.95l-0.746,0.586l-1.286,1.425l2.488,1.27l0.63,0.504l-2.037,1.113l-0.54,0.058l-0.807-0.312l-0.527-0.648l-0.58-0.451
					l-0.976,0.24l-1.167,1.419l-0.973,2.354l-1.626,5.069l0.456,1.459l-0.43,1.639l-0.794,1.436l-0.63,0.82l-0.527,0.378
					l-1.099,0.436l-0.414,0.361l-0.343,0.749l-0.701,2.15l-1.679,3.9l-1.323,6.7l-1.046,2.977l-0.237,0.198l-0.532,0.614
					l-0.361,0.649l0.512,0.586l0.524,1.232l0.25,0.285l0.819,0.453l4.687,6.601l1.165,1.053l1.703,3.562l1.186,0.591l0.143,0.163
					l0.101,0.871l0.36,1.214l-0.092,0.758l-0.217,0.704l-0.123,0.665l0.269,1.352l0.656,1.147l1.483,1.857l1.798,3.217l1.081,1.088
					l1.035-0.457l0.788-0.164l1.145,0.101l0.737-0.401l-0.435-1.633l0.475-2.156l0.419-0.889l0.78-0.446l-0.084,1.715l0.113,2.887
					l-0.42,2.481l-1.652,0.506v0.594l0.765,0.642l0.019,1.237l-0.269,1.438l-0.146,1.309l0.49,0.607l0.58,0.369l0.688,0.18
					l0.788,0.061l0.459,0.425l1.761,2.465l0.039-0.964l-0.145-1.143l0.105-0.958l1.362-0.757l0.509-0.823l0.846-1.776l1.481-1.913
					l0.217-0.693l0.157-0.939l0.282-1.119l0.153-1.183l-0.225-1.155l0.667-0.335l0.569,0.361l0.451,0.831l0.355,0.989l-0.456,0.855
					l0.301,1.356l0.68,1.24l0.67,0.546l2.237-0.163l0.941-0.592l0.393-1.279l0.388-0.897l0.911-0.739l1.782-0.974l1.483-1.189
					l0.707-1.021l0.197-1.28h0.338l0.042,1.645l-0.768,1.504l-1.117,1.076l-1.06,0.436l0.166,0.792l1.897,3.806l0.839,1.253
					l-0.957,2.24l-0.583,0.845l-1.6,0.659l-0.68,0.795l-0.978,1.823l-0.428,0.436l-0.521,0.42l-0.343,0.478l0.105,0.665l0.783,1.817
					l0.242,0.229l1.521-0.16l0.867-0.352l0.873-0.646l-0.232,1.367l-1.719,1.794l0.557,0.938l-0.356,0.187l-0.458,0.312
					l-0.383,0.438l-0.158,0.515l-0.168,0.374l-0.377-0.155l-0.654-0.507l-0.814,0.093l-4.578,1.752l-1.148,0.729l-0.796,1.459
					l0.582,2.33l-0.572,6.359l0.358,2.826l1.384,1.987l1.821,0.823l4.28,0.061l-0.63,0.874l-1.997,1.425l-0.436,0.873l-0.411,0.304
					l-2.648,3.454l-3.279,5.46l-0.582,1.312l-0.124,1.164l0.267,1.166l5.759,12.664l1.188,1.842l1.595,1.721l1.916,1.369
					l2.135,0.808l2.188,0.237l0.859-0.443l0.348-1.225l0.549-0.34l2.509-0.602l0.72,0.036l-0.445,0.47l-0.445,0.301l-0.425,0.063
					l-0.424-0.208l-0.428,0.493l-0.382,0.575l-0.143,0.766l0.277,1.068l-1.365,0.795l-0.707,0.211l-0.819,0.071l-0.363-0.101
					l-0.752-0.377l-0.445-0.045l-0.374,0.24l-0.171,0.374l-0.053,0.344l-0.056,0.182l-1.542,0.079l-1.444-0.684l-1.221-1.084
					l-0.891-1.198l-2.946-7.74l-1.163-1.414l-1.13-0.09l-1.795,1.443l-1.013,0.401l-2.119,0.319l-0.909,0.509l-0.54,0.832
					l0.05,1.285l0.683,1.248l1.79,2.377l1.212,2.576l1.331,2.282v3.069l-0.166,0.316l-0.358-0.38l-0.619-1.048l-0.735-0.857
					l-6.396-4.198l-0.567-0.663l-0.456-0.825l-1.052-0.829l-1.89-0.95l-2.079,0.082l-9.473,4.705l-1.987,0.465l-5.68,0.15
					l-0.778-0.491l-0.812-1.237l-1.025-0.945l-1.086-0.363l-0.973,0.53l-0.641-0.784l-0.872-0.525l-0.97-0.284l-0.909-0.104
					l0.374,0.987l1.466,1.515l0.498,1.522h-1.688l-5.445,2.272l-1.708,1.438l-1.162,0.319l-1.094,0.528l-0.638,0.433l-0.364-0.135
					l-0.405-0.24l-0.417-0.116l-1.562,0.13l-1.466,0.453l-1.312,0.863l-1.122,1.372l-1.036,2.156l-0.664,0.934l-0.883,0.375
					l-0.56,0.401l-1.989,2.425l-0.056,0.364l-0.372,0.947l-0.424,0.662l-0.2-0.53l-0.147-0.572l-0.33-0.167l-0.332,0.338
					l-0.145,0.958l-0.095,3.462l-0.211,1.473l-0.411,1.08l-3.258,2.135l-0.986,1.688l-4.011,3.135l-0.973,0.533l-0.923,0.267
					l-0.943,0.09l-0.757,0.422l-6.91,8.08l-0.712,1.316l-0.304,0.409l0.198,0.494l-0.056,0.38l-0.514,0.763l0.765,0.493l0.709-0.341
					l0.7-0.812l0.723-0.47l2.791,0.288l1.107-0.288l0.363-0.282l0.277-0.375l0.348-0.321l0.588-0.143l0.579,0.174l0.954,0.771
					l1.07,0.375l0.69,0.847l0.599,0.085l0.366-0.167l0.361-0.298l0.633-0.665l-0.602-0.879l0.017-1.071l0.477-0.937l0.791-0.478
					l-0.121-0.349l-0.188-0.222l1.771-2.048l0.94-0.834l1.025-0.551l3.455,0.05l0.994-0.604l0.83-0.507l3.598-1.126l2.823,0.479
					l1.362-0.126l1.284-0.977l0.393,0.918l0.511,0.127l0.562-0.396l0.574-0.649l0.153,0.33l0.155,0.135l0.366,0.158l-2.965,2.132
					l-0.313,0.335l-0.11,0.564l-0.006,1.159l0.225,0.546l0.395,1.271l0.119,1.28l-0.572,0.58l-0.861,0.291l-0.143,0.662l0.239,0.768
					l0.952,2.014l3.801,4.665l0.838-0.197l0.859-0.694l1.317-0.147l-0.643,0.828l-2.035,1.594L480,743.227l-0.19,0.137l-0.115,0.333
					l-0.24,1.116l-0.169,0.219l-0.891,0.636l-1.046,1.562l-0.812,2.026l-0.163,2.032l0.564,1.264l2.276,3.143l0.765,0.634
					l1.35-0.243l2.569-0.923l1.348-0.009v0.612l-2.564,1.911l-0.87,0.319l-0.517-0.13l-1.081-0.564l-0.403,0.09l-0.311,0.688
					l-0.068,0.966l0.113,0.992l0.266,0.758l-0.566,1.15l-0.554,1.684l-0.413,1.865l-0.448,3.441l-0.67,1.837l-1.465,2.854
					l-2.889,4.153l-5.907,5.111l-0.92,0.275l-1.025,0.073l-0.819,0.228l-0.712,0.464l-1.481,1.789l-0.972,0.897l-0.986,0.681
					l-1.471,0.467l-0.34,0.465l-0.234,0.572l-0.324,0.401l-0.575,0.229l-6.159-0.229l-1.903,0.937l0.111,2.392l-1.645-1.31
					l-0.684,0.014l-0.917,1.026l-1.218,2.016l-0.719,0.887l-0.971,0.676l-1.655,0.285l-0.387,0.313l-0.014,0.724l0.222,0.91
					l0.079,0.803l-0.453,0.327l-1.086-0.177l-1.914-0.755l-0.946-0.161l0.343,1.093l-1.437,0.602l-0.957-0.008l-2.653-1.452
					l-0.572-0.143l-1.353-0.092l-0.822,0.161l-0.545,0.425l-0.079,0.541l0.604,0.53v0.49h-0.715l-0.15,2.08l-1.57,1.377
					l-2.027,0.766l-1.536,0.229l-0.646,0.358l-1.5,1.55l-0.933,0.348l-1.79,0.146l-0.469,0.47l0.393,1.034v0.496l-0.48,0.304
					l-0.123,0.24l0.092,0.271l0.169,0.352v0.596l-0.343,0.206l-0.335,0.29h0.968l2.772-0.557l0.712-0.535l0.886,0.596l1.961,0.27
					l0.891,0.768l0.34-0.541l0.69,0.645l0.417,1l0.194,1.2l0.056,1.246l0.264,2.016l-0.158,0.781l-0.783,0.794l-0.864,0.38
					l-1.668,0.327l-0.712,0.694l-0.585,0.823l-0.546,0.406l-0.712,0.156l-1.064,0.013l0.965,0.296l2.464,1.897v0.501l-0.103,0.865
					l0.704,0.037l0.577-0.699l-0.496-1.298l0.881-0.338l6.937,0.932l1.084-0.04l3.861-0.905l0.745-0.794l0.18-0.899l-0.706-0.66
					l0.281-1.172l-0.229-0.73l-0.602-0.344l-0.812,0.014l0.611-0.388l2.808-0.256l1.441-0.597l0.58-0.412v0.6l-1.9,0.48
					l-0.828,1.641l0.285,1.938l1.418,1.428v0.504l-0.654-0.37l-0.511,0.13l-1.213,0.834l-2.403,0.501l-1.679,0.974l-0.675,0.161
					l-0.717-0.116l-1.303-0.448l-0.735,0.026l0.111,0.261l0.124,0.609l0.104,0.27l-3.824-0.549l-0.311,0.549l0.951,1.101
					l2.459,0.628l0.725,1.552l-0.453,0.85l1.202,0.879l3.242,1.058l0.519,0.417l0.259,0.077l0.445-0.198l0.414-0.766l0.933-0.419
					l0.456-0.581l0.396-0.715l0.445-0.602l0.767-0.522l0.757-0.18l4.438,0.104l0.859-0.885l0.346-0.258l0.677,0.591l0.448,0.143
					l0.914-2.272l0.116-0.606v-0.304l0.111-0.158l0.456-0.071l0.107-1.984l1.632-1.185l2.085-0.567l1.457-0.156l3.745,0.51
					l1.903-0.077l1.713-0.937l-0.748-0.739l-0.396-0.772l0.18-0.555l0.964-0.166l0.422,0.591l0.427,0.386l0.512,0.121l0.309-0.169
					l0.4-0.657l0.276-0.271l0.391-0.854l0.318-0.257l0.341,0.56l0.008,0.718l-0.24,0.752l-0.292,0.552l-0.148,0.166l0.462,0.961
					l0.764,0.572l0.92,0.229l0.909-0.061l-0.477,0.707l-0.901,0.116l-2.054-0.269l0.636,1.462l1.204,1.43l1.345,1.066l1.08,0.422
					l3.92-0.604l0.72-0.501l2.69,1.525l1.972,0.206l0.574-0.062l0.406-0.292l0.58-0.729l0.247,0.155l0.043,0.573l-0.021,0.522
					l-1.057,1.808l-2.38,0.585l-2.539,0.178l-1.541,0.517l-0.343-0.351l-0.335-0.256v-0.499h0.313l-0.313-0.599l-0.327,0.448
					l-0.532,1l-0.192,0.256l-1.7,0.541l0.014,1.245l0.439,1.024l0.124,0.837l-0.946,0.726l0.113,0.572l0.09,0.222l0.166,0.287
					l0.873,0.059l2.943,1.267l0.639,0.013l0.187-0.828l0.453,0.031l0.551,0.375l0.507,0.143l0.479-0.306l0.701-0.86l0.521-0.48
					l0.527-0.237l0.472,0.023l1.244,0.304l0.514,0.391l0.335,0.107l0.222-0.168l0.469-0.744l0.158-0.169l0.329,0.055l0.391,0.183
					l0.332,0.24l0.132,0.316l0.143,0.42l0.281-0.146l0.235-0.364l-0.011-0.211h2.079l-0.363-0.691l-0.517-0.766l-0.38-0.775
					l0.051-0.755l0.439-0.501l0.67-0.434l0.701-0.292l5.36-0.652l0.659,0.18l0.44,0.473l0.788,1.522l0.464,0.604l0.861,0.573
					l0.406,0.428l0.599,1.061l0.556,1.319l0.485,1.507l0.363,1.567l-0.126,0.053l-0.15,0.048l-0.093,0.14l0.063,0.354l0.522,0.797
					l0.98,0.981l1.117,0.573l0.914-0.438l0.693,0.061l2.915,2.434l2.344,3.232l0.912,0.524l12.44,1.146l3.508-1.485l0.751,0.103
					l0.949,0.314l0.877-1.021l0.354-1.696l-0.622-1.716l0.301-0.222l0.703-0.092l0.356-0.232l0.219-0.372l0.29-0.932l0.171-0.335
					l1.292-1.33l0.838-0.623l0.754-0.264l2.896-1.85l0.264-0.518l1.308-1.639l0.464-0.361l0.255,0.256l0.271,0.56l0.393,0.567
					l0.641,0.264l4.226-0.306l2.103-0.753l2.775-1.929l2.362-0.552l0.962-0.762l1.396-1.663l3.264-3.908l0.453-0.781l0.469-0.515
					l2.966-1.968l0.7-0.972l0.606-1.09l0.686-0.873l0.949-0.364l0.978-0.082l1.151-0.377l0.892-0.826l0.221-1.499l0.728,0.718
					l0.127,0.902l-0.393,0.932l-0.802,0.736l-2.138,0.758l-0.861,0.479l-1.705,2.33l-2.834,3.004l-0.306,0.461l-0.332,0.682
					l-0.276,0.735l-0.113,0.663l-0.177,0.712l-0.445,0.356l-0.509,0.222l-0.414,0.33l-4.396,7.57l-1.012,1.051l-1.052,0.436
					l-1.181,0.107l-0.976,0.301l-0.886,0.505l-0.878,0.728l-3.379,4.51l-1.839,1.803l-1.59-0.333l-1.08,1.146l0.756,0.797
					l-0.324,0.736l-0.693,0.721l-0.382,0.738l-0.042,1.23l-0.188,0.736l-0.511,0.229l-0.965-0.304l0.562,0.947l0.137,1.512
					l-0.019,2.972l0.158,0.752l0.177,0.422l0.098,0.525l-0.093,1.008l-0.166,0.592l-0.854,1.633l-0.681-0.538l0.681-1.13
					l-0.377-0.557l-1.405,0.977l-1.942,0.288l-3.295-0.167l-1.8,0.238l-3.571,1.132l-5.69,0.256l-0.97-0.467l-1.474-1.415
					l-6.238-1.448l-4.001,0.135l-6.45-1.694l-0.896,0.076l-1.587,0.848l-1.086,0.205h-3.598l-0.943,0.177l-1.861,0.708l-9.106,0.857
					l-3.79,1.52v0.499l0.557,0.375l0.366,0.67l0.076,0.845l-0.318,0.854l-0.372,0.138l-1.674-0.138l0.34,0.679l0.852,1.293
					l0.174,0.496l0.108,0.575l0.598,2.15l0.309,0.766l-0.519,0.306l-0.312,0.431l-0.227,0.467l-0.271,0.467l-3.366,3.779
					l-0.748,0.532l-1.015,0.325l-2.895-0.325l-0.498-0.179l-1.02-0.776l-0.551-0.169h-4.438l-0.243,0.496l0.048,1.096l0.188,1.143
					l0.192,0.604l-0.696,1.971l-0.343,0.662l-0.556,3.275l0.237,6.945l-1.365,2.736l-2.072,1.562l-0.933,1.09l-0.388,1.38
					l-0.58,0.974l-3.529,3.045l-0.688-0.197l-0.501,0.372l-0.169,0.844l0.304,1.153l-0.788,1.299l-0.572,1.428l-0.788,1.143
					l-1.434,0.475l-3.709,0.242l-1.241-0.242v0.493l0.264,0.808l-0.248,0.66l-0.078,0.723l0.777,1.011l1.645,0.609l0.864,0.53
					l0.546,1.032l-0.807-0.383l-2.056-0.121l-0.907-0.56l-0.185,0.259l-0.126,0.116l-0.335,0.213l-0.039-0.889l-0.138-1.063
					l-0.216-0.916l-0.287-0.436l-0.377,0.101l-0.648,0.749l-0.364,0.277h-1.022l-0.988,0.789l-0.487,1.069l-0.164,1.355
					l-0.058,1.578l-0.45,3.035l-0.467,1.058l-0.103,0.449l-3.461,1.862l-0.38-0.031l-0.751,0.058l-0.564,0.383l0.341,1.56
					l0.065,0.981l-0.042,0.911l-0.169,0.396l-0.68,0.227l-1.832,1.28l-5.706,6.009l-1.848,1.039h-1.774l-0.266,0.288l-0.146,0.723
					l-0.351,0.769l-0.719,1.155l-1.028,0.634l-0.996-0.496l-1.545-1.488l-1.091,0.028l-1.919,1.243l-1.7,0.589l-3.179,1.847
					l-1.455,0.549l-0.393,0.28l-0.94,1.612l-0.095,0.267l-0.188,0.358l0.079,0.821l0.276,1.47l0.079-0.014l0.161,0.209l0.14,0.38
					l-0.008,0.48l-0.214,0.313L397.674,952l-0.479,0.055l0.517,2.341l1.887,0.755l2.383-0.269l2.043-0.663l0.74-0.372l0.894-0.72
					l0.546-1.045l-0.298-1.354l-0.014-1.065l0.954-0.797l1.297-0.449l1.041-0.063l0.83,0.352l1.666,1.042l2.017,0.352l2.999,1.436
					l0.98,0.704l0.791,0.974l1.426,2.338l0.354,0.75l0.021,0.554l-0.045,0.631l0.18,0.96l0.211,0.539l0.245,0.38l1.5,1.67
					l0.503,0.42l0.448,0.166l0.169-0.417l0.579-1.812l1.477-1.755l0.34-0.285l0.606-0.093l1.009,0.198l0.454-0.105l1.42-2.147
					l0.648-1.426l-0.208-0.648l-0.213-0.23l-0.169-1.042l-0.113-0.321l-0.237-0.08l-0.572,0.101l-0.248-0.021l-0.703-0.438
					l-0.433-0.116l-0.562,0.029l1.595-0.729l0.445-0.33l0.198-0.569l-0.029-0.634l0.068-0.567l0.478-0.351l0.611-0.42l0.324-0.147
					l0.416,0.026l-0.745-0.871l-0.304-0.227v-0.476l0.633-0.86l-0.09-0.889l0.032-0.676l0.99-0.282l0.63,0.569l0.298,2.753
					l0.599,0.958l2.077-3.592l0.675-0.688l2.113-0.71l0.873-0.491l0.922-1.132l0.943-0.401l2.468,0.389l0.503-0.544l0.09-0.422
					l0.588-1.457v-0.341l-0.269-0.517l-0.077-0.478l0.182-0.499l0.411-0.575l0.456-0.493l0.351-0.283v-0.594l-0.395-1l0.559-0.636
					l1.02-0.346l1.01-0.092l0.287-0.138l0.269-0.253l0.288-0.198l0.355,0.048l0.686,2.137h0.29l0.245-0.171l0.158-0.235
					l-0.017-0.116l8.187-0.496l1.95-0.757l3.616-2.282l2.291-0.243l4.249,1.113l0.864,0.521l0.464,1.118l0.529,0.947l1.065,0.079
					v-0.496l-0.271-0.546l0.055-0.525l0.33-0.406l0.566-0.211v-0.48h-1.395l0.375-0.586l-0.979-0.103l-0.411,0.103v-0.527
					l1.729-0.478l-1.12-0.863l-2.831,0.47l-0.844-1.216l2.412,0.208l0.653-0.208l0.438-0.607l0.177-0.818l-0.205-0.799l-0.723-0.486
					v-0.478l0.601,0.006l0.512-0.267l0.382-0.555l0.209-0.844l0.54,0.461l0.509,0.035l0.99-0.496l-0.532,1.116l-0.68,1.047
					l-0.374,1.101l0.379,1.299l0.398,0.797l0.214,0.633l0.295,0.496l0.638,0.446l0.546,0.121l1.837-0.121l-0.683,1.454l0.514,1.192
					l1.112,0.812l1.091,0.319l-0.189,0.721l-0.113,0.279l0.788,0.691l0.506,0.299l0.559,0.127l0.409-0.186l0.669-0.746l0.277-0.186
					l0.495-0.163l1.271-0.721l0.469-0.116l0.541,0.24l3.275,3.006l2.879,3.592l1.86,1.702l0.741-0.823l0.777,0.098l0.901,0.453
					l1.117,0.272l0.849-0.093l2.009-0.594l0.746-0.38l-0.385-1.945l0.287-1.836l0.509-1.604l0.266-1.327l0.52-0.75l1.117-0.295
					l1.07-0.637l0.358-1.744l0.799,0.673l0.777,0.259l0.599-0.422l0.332-1.956l0.261-0.403l0.377-0.206l0.45-0.084l0.037-0.28
					l0.512-1.356v-0.538l-2.228,0.124l-0.856-0.428l-0.355-1.293l0.345-1.124l0.859-0.649l1.109-0.284l1.126-0.079l-0.891-3.257
					l-0.043-1.538l0.557-2.13l0.653-1.597l0.726-1.338l0.801-1.084l0.88-0.842l-0.439-1.053l-0.648-2.689l-0.625-0.713l-0.061-0.371
					l0.061-0.362l0.169-0.174l0.284,0.071l0.158,0.177l0.111,0.161l0.137,0.084l0.211,0.314l0.643,1.857l0.614,1.177l0.678,0.649
					l0.838,0.274l1.118,0.058l3.613-1.614l0.754-1.069l0.458-1.034l0.562-0.794l2.038-0.502l1.673-0.765l0.949-0.166l0.566,0.121
					l0.946,0.422l0.52,0.048l0.487-0.214l0.828-0.702l0.245-0.152l1.141-0.953l0.577-0.177l1.888,0.538l1.184-0.147l1.766-1.167
					l3.75-0.878l1.121,0.045l8.565,3.217l10.422,8.035l1.154,1.95l0.037,2.947h0.306l0.706-1.098l0.527-1.235l-0.129-0.989
					l-1.25-0.42l-0.458-0.749l0.276-1.676l0.617-1.665l0.582-0.771l1.874-0.609l1.055-0.167l1.716,1.08l9.229,1.031l3.743,1.778
					l0.854,0.185l4.044-0.092l0.925-0.422l-0.103-1.17l1.724-2.158l-0.271-0.098l-0.743-0.464l0.355-1.338l-0.346-0.603
					l-0.737-0.163h-0.817l-0.917-0.211l-0.591-0.591l-1.054-1.927l-0.554,0.467l-0.557,0.361l-0.59,0.212l-0.653,0.09l1.729-2.829
					l0.448-0.388l0.253,0.221l0.422,1.04l0.177,0.285l0.4,0.105l1.302-0.105l1.914,0.541l0.166,0.425l0.084,0.811l0.219,0.538
					l0.538-0.409l0.756-0.897l0.881-0.702l0.936-0.52l0.999-0.313l1.117-0.062l3.145,0.589l0.912-0.214l1.919-1.016l1.096-0.316
					l1.11-0.017l3.41,0.645l1.07,0.723l0.967,0.285l0.095-0.019l0.108-0.307l1.621-2.989l1.629,0.306l0.219-0.028l0.569-0.451
					l1.281-0.465l2.27-0.425v-0.478l-0.324-0.312l-0.367-0.293l0.733-0.24l3.194-0.285l1.117-0.403l0.155-0.929l-0.439-1.071
					l-3.886-4.37l-1.212-1.483l-0.622-0.103l-0.92-0.583l-0.498-0.259v-0.48l6.35,3.578l1.876,2.285l0.654,0.356l1.647,0.578
					l1.162,1.021l1.615,0.862l0.327,0.731l0.351,0.496l0.807,0.499l0.914,0.363l0.648,0.04l0.651-0.615l0.185-0.847l-0.129-1.53
					l-0.29-0.478l-1.748-1.479l0.746-0.227l3.11-0.251l0.904,0.478l-0.309,1.066l-0.909,1.349l-0.475,1.388l1.007,1.146l1.328-0.166
					l0.683-1.494l0.442-1.89l0.644-1.398l0.943-0.269l1.548,0.016l1.57,0.298l1.007,0.539l-0.503,1.068l0.355,0.095l0.617-0.349
					l0.239-0.273l0.58,0.318l0.97,0.972l0.49,0.383v0.479l-1.429,0.586l-0.667,0.518l-0.276,0.808l0.361,0.464l4.544,2.919
					l1.133,0.38l0.957-0.546l0.232-0.811l-0.341-1.475l0.277-0.694l0.467-0.195l0.416,0.271l0.408,0.362l0.44,0.152l8.157-2.739
					h8.532l6.362-2.298l1.832,0.73l1.336-0.72l1.635,0.166l10.353,3.792l2.116,0.147l0.92,0.304l0.864,0.857l0.465,0.27l1.747-0.037
					l0.554,0.11l2.277,0.858l0.975,0.155l1.858-0.034l1.851-2.631l1.702-1.13l0.098-0.298l0.498-0.842l0.54-0.723h0.256l1.848-0.831
					l10.796-2.312l2.009-0.899l4.878-4.781l1.975-0.663l7.122,2.356l1.716-0.688l-0.522-3.053l-0.135-2.043l0.496-0.929l2.557-3.718
					l1.945-1.805l1.015-0.694l0.975-0.256l3.264-0.093l0.982-0.406l0.38-0.391l0.43-0.572l0.49-0.494l0.585-0.208l1.083,0.071
					l0.557-0.042l1.376-1.056l3.321-1.138l1.359-1.636l1.018-2.531l0.408-3.037l-0.43-3.138l-0.822-2.11l-0.358-1.336l-0.15-1.715
					l0.27-0.285l1.769,0.016l0.324-0.264l0.279-0.385l0.242-0.48l0.172-0.502l0.463-2.612l-1.225-0.73l-16.073,1.496l-6.162,1.91
					l-10.601-1.198l-0.546-0.572l-0.703-1.312l-0.541-1.454l-0.095-1.013l-1.062-0.045l-0.239,0.763l0.227,1.103l0.396,0.947
					l-2.04-0.557h-4.288l-0.464-0.195l-0.366-0.482l-0.338-0.539l-0.382-0.462l0.898-0.577l1.832-0.446l1.57-1.527l0.778-0.024
					l1.776,0.404l1.035-0.132l0.504-0.441l-0.061-0.781l-0.628-1.126l-0.727-0.51l-7.979-1.174l-3.239,0.884l-0.237,0.261
					l-0.172,0.57l-0.221,0.549l-0.411,0.259l-3.192,0.546l0.735-0.414l0.735-0.277l0.717-0.406l0.651-0.797l0.324-0.897l0.132-0.805
					l0.269-0.586l3.442-0.896l1.373-0.096l0.807,0.773l0.662-0.651l0.643-0.164l0.672-0.031l0.741-0.238l0.948-0.915l0.066-0.146
					l0.324-0.037l0.664,0.014l0.037,0.023l1.37-0.079l3.943,0.642l2.245-0.726l2.839-1.776l2.544-2.314l1.37-2.293l-0.189-0.354
					l-0.482-0.301l-1.342,0.113l0.765-0.578l0.393-0.391l0.171-0.43v-1.871l0.183-0.681l0.503-0.436l-0.4-0.974l-0.185-0.634
					l-0.101-0.63l0.108-0.132l0.211-0.604l0.135-0.781l-0.085-0.676l-0.77-0.8l-0.88,0.167l-1.432,1.188l-1.523,0.636l-3.187,0.704
					l-1.423,1.396l-0.557-1.274l-0.849-0.417l-0.898-0.127l-0.78-0.377l1.112-0.642l2.298-0.924l1.218-0.132l0.485,0.124
					l1.106,0.465l0.609,0.013l0.511-0.259l0.794-0.686l0.585-0.161l0.264-0.43l0.219-0.969l0.147-0.95l0.026-0.436l0.366-0.2
					l1.547-1.446l1.829-0.905l0.757-0.87l0.119-1.51l0.456,1.063l1.631,2.222l0.785,1.646l0.462,0.401l0.936,0.15l3.489-0.53
					l1.613-0.67l2.557-1.745l2.847-2.649l0.596-1.276l-0.076-1.697l-0.229,0.101l-0.377,0.815l-0.517,0.509l-1.806-0.269
					l-0.78-0.341l-0.641-0.482l3.936-4.046l0.179-1.522l-0.998,0.604l-8.301-0.53l-1.307-0.615l1.265-0.206l2.423-0.82l1.102-0.066
					l1.395,0.929l0.621,0.164l0.602-0.074l1.049-0.346l0.585-0.076l1.01,0.259l0.179-0.364l0.045-1.307l-0.231-0.364l-0.524-0.269
					l-2.28-0.525l-1.044-0.766l-1.773-1.688v-0.538l1.36,0.27l2.479,2l1.458,0.485l3.387,4.37l0.564-0.214l0.561-0.897l3.477-3.866
					l1.213-1.86l0.343-0.287l0.397-0.544l0.146-1.031l0.261-0.665l0.743,0.569l0.838-0.963l3.909-1.67l0.258-0.433l0.095-1.111
					l0.712-2.195l0.19-1.465l0.891-2.797l0.276-1.576l-0.134-3.654l0.113-2.09l0.529-0.897l0.538-0.606l1.573-2.885l2.209-5.853
					l0.11-0.766l-0.053-0.797l1.265-4.22l0.628-0.789l0.2-0.738l-1.173-3.834l0.061-2.927l-0.09-1.623l-0.311-1.264l0.318-1.731
					l-0.643-2.425l-0.912-2.391l-0.936-3.882l-1.181-2.024l-1.452-1.649l-12.359-9.525l-6.046-3.109l-15.358-3.73v0.559l0.646-0.062
					l0.617,0.073l0.585,0.229l0.53,0.375l-2.268,1.053l-2.355-0.599l-2.265-1.098l-1.984-0.53h-4.243l-1.065-0.254l-1.112-0.467
					l-1.099-0.27l-1.007,0.375l0.366,0.615l-2.406-0.104l-2.688,0.53l-2.454,1.153l-1.719,1.803l-0.677,1.401l-0.775,2.016
					l-0.638,2.229l-0.269,2.001l-0.638,1.09l-1.305,1.475l-1.005,1.536l0.264,1.293v0.549l-0.735-0.369l-1.396-2.017l-0.81-0.47
					l-1.984-0.189l-1.052,0.145l-0.886,0.665l-1.21-1.491l-2.566-3.981l-1.184-0.812l-0.675-0.27l-1.397-1.153l-0.643-0.279
					l-2.583,0.622l-1.513-0.107l-0.085-1.009l0.667-1.155l0.783-0.538l1.167-0.468l1.044-1.126l3.919-5.824l0.684-0.522l0.922-0.391
					l4.444-4.531l0.819-0.522l0.991-0.216l0.548-0.225l0.301-0.583l1.038-4.328l-0.023-3.555l-0.698-3.127l-4.07-11.249l-0.21-1.143
					l-0.56-1.304l-0.777-1.177l-0.859-0.646l0.367-0.57l-1.437-1.039l-0.443-0.146l-0.284-0.332l-0.147-0.753l-0.098-0.873
					l-0.15-0.617l-0.812-0.947l-0.875-0.398l-0.944-0.214l-0.962-0.443l-4.768-3.922l-2.325-2.929l-0.706-0.298l-1.756-0.272
					l-0.858-0.62l-1.529-1.847l-2.229-1.161l-3.566-5.592l-0.948-1.687l-1.387-0.599l-8.922,1.668l-1.373,1.098l-0.788,0.298
					l-0.746-0.488l-0.535-0.58l-2.024-1.473l-1.162-0.312l-1.505,0.09l-1.373,0.665l-0.751,1.319l-0.388-0.406l-0.414-0.33
					l-0.435-0.24l-0.459-0.166l3.396-2.296l1.057-0.338l2.889,0.338l0.14,0.192l1.236,1.212l0.351,0.16l1.687-0.411h3.962
					l6.262-2.141l2.232,0.364l1.748,1.291l4.736,6.214l0.872,0.705l1.012,0.557l1.146,0.33l1.21,0.126l1.047-0.271l1.935-1.222
					l0.978-0.225l1.078,0.404l2.158,1.594l1.025,0.351l0.791,0.609l-0.224,1.428l-1.092,2.589l1.083-0.887l0.28-0.312l0.613-2.723
					l-0.793-2.766l-8.891-13.323l-5.279-8.271l-0.872-2.547l-1.426-5.53l-1.097-2.37l1.229-3.364l1.531-1.771l4.412-2.449
					l-1.803-1.636l-6.091-2.454l-1.318-1.417l-0.105-0.344l-0.353-2.256l-0.372-0.854l-1.146-0.592l-0.596-0.599l-0.49-0.377
					l-2.037-0.539l-0.385-0.451l-0.936-1.38l-0.414-0.454l0.132-0.335l0.211-0.871l-0.52-0.192l-0.393-0.433l-0.271-0.562
					l-0.177-0.567l-0.021-1.715l-0.608-2.146l-0.854-2.037l-0.745-1.349l-0.698-0.704l-1.65-1.225l-0.521-0.721l-0.156-0.87
					l0.096-0.682l-0.056-0.762l-0.599-1.186l-1.399-1.42l-11.207-7.138l-10.234-3.206l-2.414-1.625l-2.101-0.299l-0.973-0.346
					l-0.841-0.741l-0.87-1.153l-0.432,2.423l-0.296,0.448l-0.604,0.129l0.09-0.192l-0.127-0.422l-0.194-0.412l-0.143-0.211
					l-0.237-0.061l-0.076,0.222l-0.037,0.285l-0.137,0.132l-0.482-0.04l-0.351-0.158l-0.248-0.354l-0.129-0.617l1.191-0.539
					l0.477-0.424l0.403-0.739l-0.403-0.473l-0.292-0.557l-0.195-0.642l-0.124-0.688l-0.282-0.509l-0.079-0.267l-0.013-0.394h1.015
					v-0.636l-2.633-1.203l-0.762-0.567l-1.74-2.302l-1.067-2.704l-2.938-10.767l0.135-0.784l-0.358-0.316l-0.124-0.768l-0.056-1.93
					l0.021-0.514l0.089-0.394l-0.044-0.525l-0.377-0.939l-1.392-1.464l-0.175-0.251l-0.556-0.414l-0.335-0.998l-0.227-1.095
					l-0.261-0.773l-0.451-0.773l-0.809-2.2l-0.177-0.721l-0.074-0.243l-0.185-0.145l-0.635-0.288l-0.197-0.166l-0.177-0.536
					l-0.448-1.85l-0.169-1.884l-0.231-0.631l-0.862-1.34l-0.211-0.895l0.229-0.763l0.343-0.744l0.134-0.86l-0.306-0.887
					l-0.498-0.467l-0.25-0.546l0.397-1.14l-1.133-1.261l-0.625-0.96l-0.271-1.021l-0.118-0.585l-0.195-0.544l-0.092-0.575
					l0.224-0.644l0.182-0.375l0.146-0.375l0.1-0.393l0.061-0.401l-0.147-1.554l-1.218-2.249l-0.306-1.897l0.011-0.773l0.045-0.478
					l0.258-1.428l0.085-0.844l-0.177-5.895l-0.222-1.053l-0.351-0.359l-0.498-0.301l-0.242-0.419l0.411-0.768v-0.596l-0.951-0.918
					l-0.433-0.269v-0.599l0.68-0.564l-0.519-0.602l-0.354-0.641l-0.087-0.633l0.279-0.572v-0.61l-3.402-2.457l-1.07-0.137
					l-1.756,0.496l-0.605-0.359v-0.549h1.017l-0.442-1.256l-0.601-0.747l-0.639-0.322l-0.556-0.074l-0.188,0.19l-0.221,0.438
					l-0.316,0.422l-0.464,0.148l-0.253-0.309l-0.228-0.633l-0.271-0.633l-1.069-0.752l-0.512-1.095l-0.728-2.045l-6.568-8.481
					l-0.669-1.327l-2.836-5.626l-0.96-1.101l-1.067-0.443l-0.397-0.274l-0.119-0.66l-0.065-0.812l-0.264-0.731l-0.448-0.227
					l-8.018-1.575l-2.138-1.172l-3.163-2.678l-1.905-0.618l-2.026-1.449l-0.728-0.781l-0.332,0.406l-0.512,0.454l-0.208,0.359
					l-0.749-0.546l-1.268,0.245l-0.698-0.253l0.258-0.467l0.451-1.459l-0.901-0.575l-1.432-1.984l-0.943-0.425l-8.345-0.615
					l-1.022,0.454l-1.466,1.773l-0.917,0.815l0.227,0.351l0.15,0.401l0.274,1.066l-1.236,0.155l-0.859,1.101l-0.825,1.385
					l-1.159,1.008l-3.767,1.667l-3.118,0.319l-0.625-0.111l-0.3-0.33l-0.896-1.267l-0.354-0.279l-9.037-0.747l-0.852-0.747
					l-0.524-0.718l-0.498-0.034l-0.862,0.422h-2.351l-8.553-2.43l-1.118-0.016l-2.814,0.621l-0.596-0.227l-0.329-0.525l-0.237-0.594
					l-0.354-0.472l-0.346-0.042l-0.954,0.193l-0.427-0.15l-0.253-0.66l-1.713-3.061l-0.417-0.229l-0.424-0.691l-2.981-2.111v-0.551
					l1.028,0.032l0.68,0.459l1.052,1.338l1.832,1.776l1.758,1.253l1.922,0.66l4.42-0.082l8.049,2.388l1.961,0.142l1.942-0.346
					l1.97-0.923l1.726-1.188l0.999-0.462l3.487-0.185l0.74-0.504l0.562-1.312l0.696-3.003l0.532-0.958l0.999-0.356l0.814-0.478
					l2.77-3.185l2.649-1.892l0.38-0.829l0.517-0.657l1.212-0.337l2.378,0.05l3.067,1.628l1.218,0.206l1.123-0.319l3.157-2.177
					l2.398-0.549l1.181-0.565l0.909-1.776l2.652-2.612v-0.562l-1.812-1.602l-0.397-0.235l-1.705-1.578l-1.086-0.567l-4.55-0.362
					l-0.334-0.628l-0.361-0.192l-0.445-0.077l-0.557-0.264l-0.103-0.335l-0.219-1.229l-0.189-0.277h-1.224l0.799-0.918l0.661-1.341
					l0.367-1.607l-0.093-1.718l-0.598-1.122l-1.767-0.148l-0.88-0.876l-0.862-0.554l-1.202,0.214l-1.067,0.681l-0.458,0.857
					l-0.509,0.597l-9.929,5.074l-1.938,0.48l-2.098,1.261l-1.047,0.288h-2.116l-0.864-0.327l-0.599-0.842l2.153,0.715l2.096-0.881
					l5.189-5.323l1.724-1.338l1.935-0.895l14.724-2.164l0.624,0.192l0.391,0.361l0.348,0.235l0.479-0.217l0.957-2.388l0.445-0.699
					l1.9-0.947l1.028-0.739l0.856-1.9l4.657-3.359l0.774-0.984l0.52-1.562l0.891-0.966l0.277-0.633l-0.026-0.533l-0.314-1.24v-0.707
					l0.496-1.34l0.683-0.913l0.604-1.103l0.551-3.977l0.701-1.491l0.888-1.053l0.844-0.752l2.771-1.797l0.807-0.974l1.201-2.146
					l1.339-1.916l1.706-1.369l0.74-1.019l0.301-1.644l0.202-0.47l0.915-1.198l0.242-0.515l0.008-1.108l-0.245-0.673l-0.3-0.557
					l-0.132-0.771l0.648-3.285l1.528-3.288l4.502-7.246l0.817-1.734l-0.15-0.792l-0.946-0.747l-0.129-1.71l0.271-1.866l1.183-4.779
					l3.216-8.531l1.275-2.016l5.211-4.911l0.121-1.277l0.873-1.66l2.026-2.808l1.157-1.005l0.335-0.572l-0.622-0.256l-0.464-0.382
					l-0.058-0.787l0.348-0.694l0.706-0.082l-1.407-1.625l-0.53-1.019l0.206-1.156v-0.575l-0.777-1.48l-0.274-1.636l-0.169-1.684
					l-0.448-1.597l-4.228-4.771l-0.566-1.238l-0.348-0.393l-0.602-0.029l-0.83,0.744l-0.601-0.079l-0.435-0.522l-0.436-0.858
					l-0.295-0.808l-0.04-0.367l-5.503-0.188l-0.807,0.188l-2.979,2.27l-1.288,0.285l-1.007-0.338l-2.193-1.375l-1.054-0.198
					l-0.436,0.187l-0.45,0.38l-0.364,0.496l-0.152,0.53l-0.267,0.443l-0.604-0.158l-0.959-0.604l-0.456,0.167l-0.854,0.833
					l-0.562,0.322l-0.54-0.143l-0.448-0.422l-0.385-0.147l-0.361,0.712l-2.348-1.214l-0.901-0.108l-0.648,0.425l-0.354,0.705
					l-0.398,0.143l-0.793-1.272l-1.561,0.082l-4.254-1.488l-1.689,0.829l-0.532-0.578l-0.403,0.068l-0.411,0.312l-0.559,0.198
					l-0.501-0.211l-0.503-0.913l-0.346-0.216h-7.862l-0.827,0.312l-3.076,2.243l-2.02,0.636l-2.177-0.074l-6.539-2.286l-3.716-2.464
					l-6.197-0.259l-0.608,0.171l-1.318,0.832l-0.638,0.256l-0.614-0.124l-0.492-0.277l-0.448,0.079l-0.485,0.955l0.277,1.077
					l-0.473,1.182l-0.796,1.008l-0.717,0.551l-0.948,0.195l-0.994-0.124l-1.818-0.649l1.015,2.48l-0.757,0.187l-0.672,0.298
					l-0.641,0.066l-0.65-0.551l0.397-0.443l0.253-0.438l0.366-1.021l-2.973,0.691l-7.602,5.716l-1.534,0.475l-4.778-0.475
					l-4.564,0.733l-1.39-0.1l1.863,1.691l0.572,1.026l-0.901,0.449l-0.709,0.19l-0.78,0.515l-0.722,0.712l-0.934,1.386l-0.521,0.269
					l-1.128,0.1l-0.04,0.253l-0.369,0.612l-0.809,1.029l-1.044,0.539l-0.898-0.061l-1.801-0.478l0.577-0.739l0.557-0.939
					l0.906-2.122l-0.614-0.462l-0.672-0.164l-1.434,0.05v-0.691h2.72l1.146,0.356l0.34-0.129l-0.464-0.86l0.844-1.108l0.96-0.562
					l2.309-0.232L477.2,317.9l-0.168-0.253l-0.156-0.34l-0.157-0.475l1.747-2.824l1.46-1.153l1.439-1.803l1.033-1.937l-0.245-1.169
					l-0.757,0.121l-2.164,1.383l-0.632,0.694l-0.799,0.636l-1.086,0.029l-2.512-0.557l-0.654-0.839l-0.571-0.253l-0.411,0.044
					l-2.127,1.111l-1.919,2.011l-2.265,1.398l-0.604,0.85l-0.514,0.916l-0.696,0.945l-0.737,0.729l-1.495,0.644l-0.674,0.53
					l-0.254-0.071l0.414-1.436l0.4-0.929l0.451-0.612l3.234-3.304l0.703-0.288l0.757-0.615l0.337-1.288l0.364-1.077l0.843-0.032
					l0.928,0.169l3.245-0.91l1.268-0.087l0.661-0.29l3.849-3.512l1.75-0.649l1.323,1.306l-0.611,1.452l0.237,0.918l0.788,0.372
					l0.982-0.206l0.646-0.673l1.314-2.021l1.142-0.918l6.761-8.943l0.4-0.821l0.129-1.528l-0.321-0.908l-0.619-0.092l-0.754,0.868
					l-1.41,2.08l-1.782,1.694l-1.85,0.85l-1.618-0.467l0.675-1.214l-0.881-1.182l-1.603-0.37l-2.799,2.256l-1.756-0.475
					l-3.188-2.206l0.281,1.565l-0.809,0.021l-1.184-0.853l-0.854-1.055l-0.873-0.845l-1.044,0.195l-2.006,0.971l-1.908-0.428
					l-1.589-1.346l-2.625-3.977l0.999,0.354l0.951,0.874l1.605,2.246l1.099,0.784l4.015-1.069l1.389,0.394l2.857,1.48l1.399,0.045
					l0.403-0.348l0.864-1.203l0.464-0.367l0.757-0.01l1.483,0.588l0.783,0.002l-0.217-1.058l0.237-0.971l1.033-1.739l-1.054-1.823
					l-0.343-0.42l-0.757-0.375l-1.555-0.069l-0.741-0.583l-0.435-0.829l-0.134-0.765l0.224-0.375l1.429,0.863l1.286,0.166
					l0.683,0.372l-0.332,0.567l0.227,0.24l0.817,0.464l0.034-0.984l0.176-0.786l0.341-0.552l0.479-0.293l3.187-2.246l1.581-0.372
					l1.244-0.702l0.443-0.47l0.276-0.681l0.49-1.91l0.435-0.995l0.912-0.934l3.692-1.892l10.941-9.067l2.087-2.375l0.928-1.573
					l0.393-1.562l0.446-0.884l2.641-2.694l1.753-1.092l4.356-1.57l2.088-1.214l1.868-2.177l2.642-3.863l2.166-4.275l0.453-3.356
					l0.517-0.156l0.448-0.539l0.225-0.855l-0.166-1.116l-0.386-0.515l-0.477,0.114l-0.557,0.33l-0.619,0.071l-1.054-0.652
					l-0.527-1.145v-1.539l0.559-1.86l0.361-0.628l1.31-1.259l0.448-0.812l0.751-1.721l0.559-0.794l0.24-1.419l0.946-1.961
					l0.316-1.739l-1.682-0.757l-3.281,0.678l-1.655-0.008l-2.594-1.903l-2.006,0.201l-3.266,1.032h-1.531l-0.369-0.367l-0.185-0.845
					l-0.129-0.878l-0.195-0.518l-0.83-0.145L512.996,215.139z M368.272,231.8l-2.451,3.254l-8.848,6.879l-1.254,1.697l-0.445,0.406
					l-3.15,1.691l-1.326,0.401h-1.703l-0.411,0.293l-0.309,0.475l-0.374,0.24l-0.606-0.361l-1.064,1.517l-4.062,3.658l0.543-0.042
					l0.322,0.208l0.234,0.441l0.256,0.686l-0.33,0.032l-0.24,0.19l-0.2,0.235l-0.248,0.192l0.208,0.549l0.24,0.475l0.569,0.853
					l0.089,0.253l0.193,0.85l0.092,0.248l0.3,0.084l0.735-0.203l0.295,0.119l0.229,0.538l0.279,1.462l0.203,0.576l0.419,0.514
					l1.244,0.776l-1.357,1.995l-0.585-1.38l-1.205-1.182l-1.281-0.652l-0.838,0.259l-0.493,0.404l-2.214,0.557l-0.158,0.296
					l-0.063,0.66l-0.179,0.683l-0.49,0.356l0.285,0.913l0.751,1.646l0.353,0.599l-0.116,1.264l0.019,0.53l0.097,0.834l-0.661-0.935
					l-0.757-1.786l-0.519-1.971l0.063-1.452l-0.622-0.723l-1.036-1.607l-0.329-1.34l1.484,0.098v-0.644l-2.726-1.261l-0.372,0.325
					l-0.39-0.069l-1.932-1.061l-0.738-0.573l-0.957,1.158l-0.295,0.642l-0.105,1.161l0.211,1.14l0.524,0.509l1.308,0.607
					l-1.028,0.449l-3.74,0.259v0.583l0.271,0.148l0.358,0.39l0.364,0.167l-0.232,0.499l-0.129,0.338l-0.189,0.222l-0.443,0.164
					l0.04,0.942l-0.562,0.818l-0.156,1.201l0.232,0.512l0.43,0.208l0.279,0.401l-0.263,1.126l0.4,0.488l1.46,3.072l0.406-0.048
					l2.161-1.581l-0.24,0.694l-0.309,0.557l-0.39,0.417l-0.456,0.311h1.394v0.591l-0.577-0.145l-0.506,0.113l-0.396,0.451
					l-0.224,0.866l1.463,0.021l4.689-1.306l-3.018,1.736l-1.626,0.588l-1.508,0.238l0.103,0.288l0.018,0.111l0.04,0.098l0.148,0.2
					v0.589l-0.988-0.045l-0.651,0.554l-0.588,0.789l-0.806,0.678l2.348,1.813l0.424,0.011l0.635-0.541l0.411,1.494l1.318,0.512
					l2.871-0.143l0.751,0.312l1.305,1.359l0.68,0.312h2.889v0.641l-0.39,0.077l-0.933,0.62l0.142,0.303l0.166,0.267l0.382,0.441
					l-1.486-0.349l-1.487,0.346l-2.541,1.497v0.63l2.412,1.86l-2.396-0.071l-1.131,0.364l-0.619,1.045l-4.075,3.834l-0.2-1.167
					l-0.271-0.773l-0.409-0.425l-0.62-0.132l-0.785,0.229l0.029,0.578l0.358,0.715l0.222,0.683l0.551,0.401l3.01,3.824l0.485,0.29
					l2.528,3.021l0.369,0.153l0.912-0.979l3.05-2.117l1.028-1.063l-0.227-0.182l-0.243-0.269l-0.234-0.182l1.31-1.084l0.548-0.607
					l0.546-0.916l-0.332-0.354l-0.414-0.657l-0.269-0.214l0.335-0.694l2.327,1.736l1.107,0.182v-0.581h-0.375v-0.644l0.888,0.111
					l0.891-0.182l0.685-0.467l0.258-0.734l-0.203-0.53l-1.157-2.146l-0.443-0.301l-1.062-0.464l-0.564-0.396l0.409-0.654
					l0.248-0.596l0.267-0.47l0.466-0.309l1.734,1.019l4.077,1.01l-0.206-1.979l-0.134-0.628l-0.227-0.219l-0.398-0.147l-0.43-0.261
					l-0.335-0.599l0.358-0.063l0.245-0.203l0.211-0.24l0.269-0.19l-0.469-0.652l-0.496-0.873l-0.574-0.76l-0.704-0.338l-0.553-0.578
					l-1.041-2.824l-0.648-1.021l0.973-0.625l1.413-1.346l1.165-1.507l0.221-1.069v-0.591h4.792v0.591l-1.864,0.122l-1.813,0.594
					l-1.434,1.375l-0.735,2.457l0.087,1.335l0.393,1.267l1.36,2.818l0.311,1.14l0.263,0.485l0.488,0.462l1.584,0.826l0.337-0.591
					l-0.374-0.644l-0.475-1.126l-0.271-1.071l0.258-0.478l0.472,0.203l0.269,0.507l0.432,1.272l0.622,1.005l0.767,0.72l0.928,0.19
					l1.112-0.578v-0.697l-0.224-0.201l-0.237-0.274l-0.221-0.166v-0.705l0.912,0.253l0.638,0.367l0.625,0.058l0.894-0.678
					l0.419-0.62l0.804-1.494l0.475-0.38v-0.646l-0.709-0.958l-1.761-0.536l-0.777-0.773l-1.067-0.47l-0.433-0.412l0.298-0.699
					l0.274,0.037l1.052,0.436l4.667,0.815l1.176-0.319l0.788-0.813l0.701-1.05l0.917-1.079l-0.625,0.071l-0.627-0.087l-0.59-0.225
					l-0.53-0.404l0.469-0.092l0.438-0.227l0.417-0.375l0.372-0.539l-0.48-0.538l-0.2-0.156l0.063-1.237l-0.269-1.193l-0.501-0.95
					l-0.656-0.48l-0.672,0.113l-1.523,0.947l-6.476,1.57l-1.895-0.056v-0.646l0.807,0.071l2.588-0.707l1.362-1.293l0.467,0.079
					l0.762,0.533l0.477,0.032l0.741-0.48l1.666-2.093l2.517-0.573l0.88-0.718l-0.216-0.715l-0.034-0.467l0.174-0.38l0.419-0.422
					l-0.541-1.068l-1.154-3.444l0.77,0.021l1.481,0.981l0.833,0.291l2.225-0.291l0.841,0.291l1.46,1.019l0.685,0.113l0.907-0.491
					l0.185-0.267l0.472-0.91l0.351-0.436l0.44-0.316l1.305-0.649l-0.237-0.937l-0.135-0.351l0.211-0.309l0.243-0.581l0.232-0.462
					h-0.314v-0.583l0.469-0.702l-0.522-0.066l-0.922,0.325l-0.754,0.443l-2.409,2.631l-1.378,0.62l-1.99,0.137l-1.829-0.581
					l-0.922-1.523l1.373-0.031l0.556-0.208l0.451-0.462l0.071-0.702l-0.153-0.836l0.105-0.694l1.471-0.591l0.477-1.348l0.593-0.296
					l0.646-0.132l0.369-0.396l0.074-0.628l-0.258-0.839l0.819-0.942l2.235-1.694l1.057-0.541v-0.705l-0.725,0.029l-0.675-0.25
					l-0.556-0.462l-0.424-0.617l1.144-3.935l0.372-0.539l0.901-0.454l-0.156-0.998l-0.894-1.533l-0.24-1.512l-0.625-1.831
					l-0.886-1.705l-1.004-1.125l-1.202-0.1L368.272,231.8z M338.898,255.494l0.197,1.077l0.501,0.887l0.632,0.359v0.591
					l-0.161,0.029l-0.524-0.029v0.644h4.08l-0.219-0.842l-0.311-0.691l-0.379-0.567l-0.446-0.48l-0.517,0.33l-1.602-1.839
					l-0.941-0.427L338.898,255.494z M331.352,286.672l-2.063,2.035l0.068,0.327l0.053,0.034l-0.011,0.201l-0.11,0.768l0.688-0.058
					l0.511-0.291l0.351-0.62l0.182-1.061l1.761,1.161l0.598-0.359l-0.016-2.016l-0.901-0.649L331.352,286.672z M253.027,296.37
					l0.986,0.739l1.091-0.256l0.838-1.063l-0.843-0.446l-1.803-0.261l-0.785-0.631L253.027,296.37z M324.262,303.65l-2.114,2.322
					l1.178,0.156l1.441-0.662l0.896-1.032l-0.459-1L324.262,303.65z M367.379,306.962l-0.161,0.132l-0.377,0.156l-0.638-0.288
					l-0.366,0.641l-0.293,1.129l-0.435,1.114l-0.332,0.356l-1.993,1.296l-0.34,0.103l-0.113,0.319l0.056,1.101l0.25,0.62
					l0.416,0.536l0.264,0.75l-0.213,1.267l0.351,0.385l0.485,0.259l0.572,0.092l0.599-0.098l-0.625,1.889l-0.669,0.926l-0.185,0.937
					l0.825,1.942l1.716,2.053l0.69,1.164l-0.021,1.267l0.213,0.356l0.253,0.609l0.242,0.301v0.634l-3.788-5.062l-0.659-0.34
					l-0.593,1.818l-1.073,1.373l-0.49-0.143l1.133-2.752l-0.84,0.045l-0.701,0.367l-0.659,0.079l-0.709-0.786l-0.561-0.868
					l-0.541-0.478l-2.317-1.304l-0.343-0.274l-0.472-0.586l-0.142-0.581l-0.071-0.855l-0.19-0.763l-1.096-0.744l-0.567-0.833
					l-0.709-0.71l-1.022-0.011v0.691l0.572,0.802l-0.108,1.343l-0.527,1.367l-0.651,0.926l1.241,0.33l1.521,1l1.263,1.478
					l0.487,1.678l-1.471-0.686l-0.883-0.113l-0.396,0.451l-0.098,0.327l-0.461,0.19l-0.121,0.412l0.089,0.349l0.456,0.662
					l0.134,0.301l0.135,0.208l0.854,1.058l-0.229,0.169l-0.208,0.28l-0.213,0.185v0.567l0.288,1.164l-0.662-0.148l-0.899-0.712
					l-0.456-0.586l-0.313-0.844l-2.63-3.911l-0.475-0.304l-0.514,0.259l-0.677,1.008l-0.361,1.177l0.092,1.106l0.445,0.998
					l0.688,0.794h-3.055l0.529,2.08l2.066,1.57l0.459,2.398l0.39,1.333l0.933,1.125l1.168,0.784l4.575,1.575l0.82-0.712l0.1-1.042
					l-0.551-1.678l0.079-1.058l0.469-0.731l0.59-0.243l0.569-0.394l0.411-1.214l0.466,0.71l0.18,0.823l-0.053,0.863l-0.253,0.818
					l0.654-0.449l0.991-1.248l0.735-0.195l-0.243,1.026l0.1,0.752l0.33,0.496l0.458,0.248l-0.137,0.354l-0.15,0.14l-0.358,0.127
					l0.97,0.554l0.39,0.082v0.688l-0.714,0.57l0.633,0.008l1.07-0.459l0.562-0.119l0.564,0.111l0.335,0.285l0.646,0.802l3.115,2.623
					l0.654,1.211l-1.336-0.306l-1.033-0.95l-0.888-1.098l-0.885-0.8l-1.112-0.198l-0.986,0.436l-2.291,1.66l0.153,0.649l0.179,0.303
					l0.216,0.224l0.258,0.394l0.147,0.403l0.25,0.869l0.126,0.303l2.359,3.159l0.831,0.256l2.282-0.219l-0.3,0.75l-0.39,0.493
					l-0.472,0.327l-0.541,0.253l0.746,1.697l0.957,1.496l0.78-0.62l0.838-0.446l0.88-0.224l0.933,0.04v0.567l-1.51,2.008
					l-0.564,0.504v0.683l7.029-1.857l0.865-0.591l-0.728-0.747v-0.567l0.496,0.063l0.443,0.222l0.408,0.398l0.356,0.567l0.409-0.44
					l0.282-0.198l0.269,0.137l0.403,0.501l0.084,1.383l0.203,1.858l0.285,1.646l0.633,0.702l0.738-0.407l0.461-0.91l0.414-1.029
					l0.611-0.731l-0.34-0.683l0.498-0.523l0.337-0.638l0.527-1.351l-0.593-1.438l-0.219-0.728l-0.211-0.966l0.585,0.303l0.648,0.818
					l1.178,2.011l0.108,0.512l0.019,0.652l0.063,0.536l0.271,0.24l4.251-0.074l1.394-0.422l1.371-0.76v0.631l-4.789,2.449
					l-0.559,0.552l-0.448,0.607l-0.912,1.755l-0.343,0.435l-0.15,0.404l-0.208,0.86l-0.145,0.25l-0.295,0.201v0.625l0.135,0.802
					l-1.342,1.99l-0.153,1.578l0.475,1.204l0.701,0.314l2.654-0.53l0.922-0.639l0.801-0.823l2.926-4.13l0.39-0.702l0.479-0.461
					l1.052-0.597l1.054-0.844l0.477-1.256l0.087-2.026l0.351-0.618l1.975-0.2l0.746-0.407l1.815-1.533l1.01-1.391l0.379-0.747
					l0.192-0.889l-0.221-0.998l-0.011-0.597l0.812-2.28h-3.705l-0.833-1.164l-1.458-0.021l-1.392,0.52l-1.42,1.441l-2.066-0.09
					l-0.274,0.356l-0.298,0.591l-0.448,0.436l-0.712-0.074l-0.327-0.512l-0.335-0.865l-0.466-0.826l-0.743-0.364l-1.257,0.127
					l-0.664-0.077l-0.475-0.37l-1.107-1.148l-1.007,0.127l-1.099,0.562l-1.36,0.15v-0.633l1.257-0.594l0.587-0.844l-0.211-0.75
					l-1.141-0.325l-4.262,0.57l0.675-0.63l1.673-1.016l0.375-0.821l-0.327-0.675l-0.749-0.681l-0.722-0.948l-0.248-1.52l0.303-0.567
					l0.53-0.757l0.277-0.879l-0.43-0.955l-0.754-0.246l-0.867,0.314l-0.828,0.609l-0.606,0.589l0.451-0.853l1.31-1.293l0.279-0.697
					l0.092-1.246l0.454-2.105l0.129-1.386l-0.082-1.272l-0.485-2.765l-0.451-6.458l-0.224-0.771l-0.522-0.899l-0.952-1.243
					l-2.227-1.908l-0.168-0.438l-1.218-2.093l-0.469-0.636l-1.17-0.984l-0.435-0.583l-0.435-0.987L367.379,306.962z
					 M322.823,308.176l-2.338,1.776l-1.057,0.472l0.69,0.541l0.327,0.095v0.638l-1.049-0.126l-2.72-1.148l0.479-1.195l0.232-0.38
					l0.309-0.325v-0.578l-1.16,1.164l-1.568,2.285l-1.481,1.496l-0.891-1.193l0.97-0.583l0.385-0.055v-0.636l-3.392,0.599
					l-1.057-0.599l-0.817,1.539l-0.675,1.836l-0.78,1.591l-1.131,0.802v0.639l2.267,1.663l0.804,0.33l0.617,0.391l0.395,0.092
					l0.348-0.19l0.332-0.414l0.34-0.607l1.537,0.396l3.002,1.987l1.642,0.153l-0.954,0.646l-0.435,0.045l0.4,0.446l0.235,0.504
					l0.168,0.514l0.577,1.087l0.19,0.224l0.472,0.325l0.88,0.216l1.748-0.145l0.801,0.623l0.822-0.667l1.031-0.179l2.071,0.153
					l1.01-1.939l0.166-0.586l-0.188-0.625l-0.316-0.311l-0.857-0.33l-1.001-0.169l-2.925,0.86h-3.582v-0.691l2.098-1.721
					l0.651-0.179l0.24,0.301l0.43,1.208l0.351,0.391l0.308-0.04l0.714-0.462l0.367-0.132l2.912-0.269l1.21-0.868l0.98-2.029
					l-1.6,0.549l-0.804-0.026l-0.348-0.847l-0.161-1.248l-0.44-0.443l-1.437,0.111v-0.691l0.3-0.581l-0.053-0.383l-0.353-0.192
					l-0.577-0.058v-0.694h2.225l1.136,1.119l0.548,0.214l0.33,0.335l0.377,0.723l0.5,0.644l0.699,0.14l0.334-0.396l0.849-1.562
					l0.514-0.522l-0.454-1.148l-0.919-0.541l-1.097-0.019l-0.735-0.044l-0.659-0.488l-1.507,0.792l-0.812-0.512l0.878-0.597
					l0.306-0.784l-0.185-0.865l-0.627-0.868L322.823,308.176z M0.04,316.358L0,316.417v0.058l0.04,0.029h0.098l0.047-0.058v-0.029
					l-0.047-0.058H0.04z M384.59,318.354l-0.351,0.401l-0.337,0.551l0.105,0.356l0.013,0.084l0.219,0.25l-0.577,1.167l-0.135,1.229
					l0.314,0.984l0.772,0.425l0.008-1.501l0.638-3.57l-0.33-0.449L384.59,318.354z M383.251,325.697v0.678l-1.012-0.625
					l-0.498,0.053l-0.562,0.572l0.406,0.984l0.271,0.483l0.337,0.433v0.634l-1.426,0.185l-0.81,0.728l-0.372,1.544l-0.398,5.935
					l0.087,1.546l0.543,0.781l-0.163,0.377l-0.074,0.271l-0.132,0.66l0.854,0.552l0.798-0.314l0.786-0.594l0.822-0.325l0.843-0.691
					l-0.282-1.517l-0.686-1.523l-0.393-0.675l-0.045-2.832l0.728-3.201l0.812-2.724l0.213-1.396l-0.24-0.522l-0.303-0.382
					l-0.375-0.251l-0.443-0.119L383.251,325.697z M317.807,326.919l-0.614,0.116l-0.612-0.208l-0.587-0.451l-1.167,0.063
					l-0.98,0.874l-0.662,1.441l-0.248,1.733l0.567,1.074l3.879,2.394l1.313,0.309l4.312-1.283l0.068-0.633l-0.398-0.623l-0.72-0.301
					l-1.154,0.01l-0.424-0.34l-0.274-0.918l0.943-0.066l1.128-1.047l0.678,0.414l0.313-0.567l-1.365-1.101l-0.337-0.167
					l-0.469,0.108l-0.422,0.219l-0.411,0.055l-0.424-0.383l0.195-0.161l0.066,0.008l0.023-0.071l0.082-0.409l-0.551,0.082
					l-0.485-0.053l-0.398-0.219l-0.298-0.443L317.807,326.919z M315.168,333.978l-2.274,1.135l-0.983,0.736l1.329,4.169l0.588,2.794
					l-0.369,1.277l-0.633,0.195l-0.253,0.546l-0.116,0.802l-0.232,0.974l-0.651,1.742l-0.387,0.652l-0.627,0.75l0.648,0.185
					l0.538,0.483l0.852,1.217v0.62l-0.295,1.071l0.185,1.483l1.297,4.824l0.43,0.974l1.447,1.729l1.558-0.947l4.112,0.86
					l1.157-1.225v-0.573l-0.999-0.098l-0.622-0.768l-0.577-0.969l-0.859-0.72l-0.756-0.087l-1.79,0.25l-0.888-0.164v-0.625
					l1.921-0.105l0.954,0.179l0.87,0.552l0.551-1.09l0.111-1.832l-0.224-1.929l-0.438-1.412l-0.885-0.9l-3.195-0.984v-0.575
					l3.825,1.024l0.962-0.449l0.361-0.739l0.522-1.892l0.29-0.832l0.588-0.718l0.585-0.311l0.464-0.507l0.253-1.349l-0.82,0.069
					l-0.54-0.528l-0.467-0.757l-0.59-0.609l-0.772-0.246l-1.54-0.021l-0.743-0.375l-0.632-1.116l-0.203-0.192l-1.207-0.57
					l-0.393-0.092l-0.448,0.053l-0.369-0.179l-0.147-0.784l-0.116-0.406l-0.261-0.465l-0.335-0.409l-0.306-0.293l1.131-0.636
					l0.988,1l0.983,1.467l2.069,1.238l0.912,0.921l1.064,0.515l1.381-0.731v-0.628l-1.107-0.171l-1.563-1.499l-1.104-0.224v-0.62
					l0.965,0.361l0.351-0.029l0.417-0.332l-4.447-3.159L315.168,333.978z M382.339,342.312l0.308,1.28l1.134,1.216l1.31,0.539
					l1.655-0.665l-0.198-1.419l-1.315-1.328l-1.706-0.356L382.339,342.312z M355.329,365.035l-1.721,1.013l-0.77,0.66l1.289,0.309
					l1.603,0.071l1.61-0.282l1.312-0.72l-0.599-0.475l-1.215-0.317l-0.572-0.512L355.329,365.035z M364.894,366.346l-1.552,1.261
					l-2.992,3.473l0.928,0.494l1.568,1.646l0.751,0.351l0.701,0.496l0.817,2.182l0.891,0.496l1.906-0.188l1.375-0.842l0.957-1.887
					l0.675-3.319h-1.329v-0.676l0.938-0.826l-1.094-1.246l-2.594-1.678L364.894,366.346z M310.472,368.557l-0.928,0.789
					l-1.202,0.253l-1.215,0.911l0.514,0.665l0.116,1.029l-0.24,0.95l-0.577,0.417l-0.841,0.398l-0.562,0.878l-0.029,0.879
					l0.767,0.398l3.226,0.62l0.785-0.113l0.775-0.367l0.419-0.596l-0.28-0.855l0.372-0.195l0.385-0.306l0.403-0.438l0.403-0.583
					l0.427-0.338l1.444,0.053l-0.424-0.425l-0.203-0.702l-0.147-0.757l-0.243-0.612l-0.448-0.407l-1.598-0.836l0.311-0.364
					l0.712-1.573l-0.211-0.274l-0.213-0.2l-0.261-0.108l-0.337-0.04l-0.316-0.491l-0.169-0.129l-0.227-0.002L310.472,368.557z
					 M358.652,399.767l-0.812,0.298l-1.481,1.312l-1.178,0.501l-1.6,1.222l-0.574,0.739l-2.254,3.697l-1.315,1.295l-1.357,0.259
					l0.277,0.871l0.474,1.098l0.44,0.499l0.2-0.929l0.245-0.836l0.585-0.005l1.208,0.536l0.83-0.293l2.599-2.122l1.837-2.518
					l0.64-0.084l0.467-0.24l0.385-0.388l0.385-0.528l0.348-0.702l0.688-1.831l0.472-0.889l0.333-0.942l-0.488-0.256L358.652,399.767
					z M375.497,403.11l-1.964,0.607l-1.471,1.143l-0.124,1.76l-0.369,0.391h-0.417l-0.44-0.361l-0.443-0.705l-0.793,0.736
					l-0.807,0.385l-1.829,0.177l0.295,1.09l1.02,1.145l0.411,0.845l-2.38,1.792l0.691,0.705l0.83,0.633l0.952,0.443l4.665,0.821
					l1.02,0.588l0.609,0.678l0.453,0.829l0.814,1.853l0.461,0.459l0.445-0.169l0.422-0.406l0.382-0.214l1.06-0.177l3.202-1.676
					l0.466,0.546l0.206,0.744l-0.04,0.871l-0.285,0.926l-0.601,0.47l-2.971,1.422l-1.763-0.19l-0.479,0.19l-0.422,0.549
					l-0.227,0.639l-0.153,0.649l-0.725,1.852l-0.377,0.43l-0.659,0.172l-0.559,0.271l-0.475,0.663l-0.213,0.902l0.224,0.955
					l0.978,0.874l1.242,0.082l2.419-0.618l2.912-1.628l0.999-0.27l0.301,0.446l-0.952,0.998l-2.24,1.623l-3.435,0.731l-0.846,0.8
					l-0.786,0.406l-2.243-0.504l-0.919,0.401l0.279,0.195l0.174,0.18l0.211,0.147l0.393,0.101v0.612l-0.909,0.63l-0.696-0.771
					l-0.662-1.312l-0.796-0.945l-0.988-0.166l-1.252,0.243l-1.078,0.736l-0.451,1.277l0.298,1.652l0.728,1.375l0.898,1.005
					l1.365,0.808l1.036,0.362l0.619,0.044l0.52-0.277l0.303-0.633l0.227-0.625l0.298-0.295h4.623l0.527-0.261l1.186-0.836
					l0.506-0.177l0.572,0.229l0.622,0.412l0.617,0.177l0.575-0.486l0.851-0.958l3.964-2.05l1.676-0.394l0.466-0.28l0.351-0.625
					l0.271-0.633l0.25-0.296l1.22-0.446l0.614-0.047l0.406,0.493l-0.063,0.823l-0.456,0.763l-0.546,0.594L389,432.507l1.592,1.066
					l1.961-0.472l4.425-3.051l0.859-1.045l0.335-0.981l-0.81-0.428l-1.884,0.27l-0.894,0.396l-0.791,0.62v-0.667l1.632-1.449
					l0.598-1.053l-0.16-1.183l0.382-0.044l0.335,0.042l0.313,0.171l0.301,0.388l-0.093,0.966l0.717,0.361l1.627-0.04l0.635-0.57
					l-0.371-1.246l-0.712-1.261l-0.448-0.604l0.914,0.145l0.403,0.15l0.42,0.309l0.255-1.781l-0.524-0.351l-0.728,0.185
					l-0.368-0.198l-0.235-1.098l-0.553-1.053l-0.675-0.823l-0.577-0.464l-0.324-0.019l-0.923,0.159l-0.485-0.14l-0.424-0.382
					l-1.102-1.745l-0.351-0.282l-0.49-0.09l-0.493,0.101l-0.767,0.52l-0.366-0.343l-0.367-0.536l-0.4-0.317h-4.971l-0.522-0.182
					l-0.129-0.449l-0.008-0.591l-0.145-0.636l-2.027-4.874l-1.223-1.826l-1.545-0.137l0.098-0.401l0.129-0.981l0.084-0.412
					l-2.343-0.755l-0.688-0.485L375.497,403.11z M342.269,413.401l-1.123,0.28l-1.845,1.211l-1.112,0.412l-3.366,0.562l-1.086,0.615
					l0.503,1.497l0.29,1.401l0.438,1.058l3.124,1.446l1.033-0.05l-0.285-1.602l0.901-1.573l1.078-0.475l1.104-0.224l0.994-0.86
					l0.09-1.512l3.01-0.38l0.701-1.129l-0.627-1.583l-1.262-0.066L342.269,413.401z M371.602,416.516l-0.627,0.335l-0.556,0.607
					l-0.522,0.876l1.312,1.182l1.242,0.198l2.606-0.146l-0.521-1.053l-1.502-1.248l-0.728-0.787L371.602,416.516z M407.312,424.437
					l-0.704,0.153l-1.568-0.061l-0.798,1.027l-0.29,0.581l-0.243,0.847l1.331,0.042l1.086-0.504l0.899-1.053l0.764-1.554
					L407.312,424.437z M403.053,432.839l-1.136-0.219l-0.614,0.499l-0.68,1.786l0.319,1.43l0.928,0.594l1.13-0.702l-0.315-1.169
					l0.269-0.763l0.472-0.723l0.284-1.066L403.053,432.839z M402.049,438.547l-0.248,0.048l-0.242-0.214l-0.256-0.322l-0.611,0.691
					l-0.551,2.143l-0.509,0.833l0.949,2.438l0.498,0.546l0.472-2.792l0.493-1.306l0.382-1.283l-0.108-1.272L402.049,438.547z
					 M396.864,444.907l-0.801,0.852l-0.543,1.475l1.194-0.164l1.544-0.509l1.021-0.934l-0.358-1.393l-0.372-0.67L396.864,444.907z
					 M395.66,448.955l-2.549,2.597l-3.788,3.789l-1.513,0.473l-1.02,0.786l-1.531,1.9l-1.4,2.299l-0.609,2.032l0.741,1.433
					l1.685-0.058l1.832-0.525l1.184,0.04l-1.634,1.404l-3.898,0.757l-1.466,1.225l-0.809,0.887l-0.849,0.461l-0.746,0.61
					l-0.487,1.38l-0.095,1.549l0.433,4.256l0.783,2.248l1.787,1.182l1.94,0.14l1.27-0.905l0.335-1.351l0.493-3.412l0.361-0.678
					l0.828-0.443l1.228-1.572l0.527,0.195l1.088-3.56l4.199-8.349l1.992-4.964l0.991-1.034l0.754-1.33l0.783-0.789l0.068-1.092
					l-0.14-1.227l-0.185-0.855l-1.07-0.512L395.66,448.955z M374.814,450.828l-0.833,0.119l0.132,0.578l0.082,0.248l0.15,0.33
					l-0.409,0.356l-0.777-0.343l-0.369,0.322l-0.3,0.517l-1.044,1.367l-0.448,1.087l-0.261,1.182l-0.369,1.032l-0.778,0.625
					l1.028,0.549l1.378,0.04l1.357-0.391l0.991-0.747l-0.137-1.583l0.575-1.786l1.605-2.779l-0.229-1.074l-0.569-0.029
					L374.814,450.828z M375.603,467.35l-0.656,0.599l-0.735,0.475l-0.714,0.195l-0.63,0.388l-1.239,1.71l-1.785,1.05l-1.6,1.625
					l-1.067,1.961l0.374,1.744v0.607l-0.617-0.185l-0.377-0.646l-0.369-1.586v-0.557l0.614-2.509l0.377-0.57l-0.651-0.29
					l-0.559,0.454l-0.59,0.655l-2.717,1.229l-1.803,1.314l-0.372,0.702l-0.137,1.111l-0.061,1.396l-0.206,0.834l-0.406,0.552
					l-0.659,0.575l1.668,1.201l-2.214,3.338l-0.541,1.441l0.269,0.153l0.2,0.343l0.25,0.15l-0.638,1.578l-0.058,1.43l0.625,0.857
					l1.392-0.243l0.635-0.707l1.576-2.396l1.597-1.121l0.696-1.446l1.17-3.066l1.015-0.873l1.405-0.23l1.431,0.246l1.076,0.546
					l-2.262,2.203l-1.265,1.633l-0.206,1.589l0.414,0.042l1.971,0.977l0.617,0.757l1.076,3.108l-2.702,1.562l-1.086,1.253l-0.29,2
					l0.693,1.963l1.188,0.422l1.268-0.478l1.26-1.027l0.477-0.538l0.211-0.343l0.366-1.871l0.641-0.33l2.111,0.33l1.405-0.448
					l1.32-0.736l1.144-1.056l0.894-1.37l0.311,0.665l0.232-0.72l0.393-0.512l0.514-0.393l0.593-0.295v-0.546l-0.285-0.726
					l-0.161-0.881l-0.024-1.005l0.126-1.011l-0.809-0.388l-0.33-0.333l-0.25-0.48l0.066-0.543l0.229-0.808l0.129-0.736l-0.237-0.327
					l-0.472-0.293l-0.753-0.726l-0.696-0.897l-0.303-0.829l-0.161-2.668l-0.68-4.924l-0.206-3.789l-0.171-0.541l-0.322-0.346
					l-0.506-0.171L375.603,467.35z M422.9,469.493l-0.069,1.388l0.602,1.533l0.397,1.359l0.324,0.663l1.719,1.182l0.103,1.146
					l0.577,2.48l0.515,1.48l3.258,3.071l0.582,1.567l0.485,0.752l0.627,0.047l0.34-0.575l-0.095-0.736l-0.39-0.678l-0.53-0.377
					l0.524-1.203l0.319-0.464l0.065-0.522l-0.517-2.76l-0.345-1.214l-0.464-1.159l-0.604-1.185l-0.43-0.396l-0.459-0.166
					l-0.351-0.438l-0.287-2l-0.338-0.277l-0.442-0.082l-0.445-0.277l-1.516-1.702l-1.545-1.33L422.9,469.493z M418.021,486.162
					l0.107,0.295l0.13,0.665l0.105,0.301l-1.689,0.301l-1.534,1.367l-1.202,1.892l-0.68,1.916l-0.245,2.837l0.438,2.122l0.933,1.765
					l1.231,1.739l-0.232,0.425l-0.095,0.277l-0.101,0.229l-0.258,0.232v0.586l0.2,0.675l0.459,2.341l0.026,0.594v0.575l2.042,1.808
					l2.069,1.306l2.28,0.815l2.678,0.288l2.277-0.438l1.28-0.554l0.691-0.815l-0.13-1.443l-0.517-1.351l-0.098-1.153l1.118-0.799
					l-2.04-0.918l-0.403-0.327l-0.274-1.161l0.459-0.319l0.717-0.029l0.484-0.277l-0.115-1.992l-2.159-2.24l0.577-1.185
					l-0.996-4.359l-0.69-1.871l-1.036-1.649l-0.88-0.844l-3.224-1.623l-0.414-0.092L418.021,486.162z M370.595,522.396l-0.577,0.264
					l-0.559,0.388l-0.545,0.509l1.139,0.18l1.233-0.14l1.239,0.129l1.149,0.979l-0.189,0.398l-0.056,0.319l-0.023,0.417
					l-0.077,0.712l0.364-0.583l0.469-0.971l0.306-1.098l-0.121-0.929l-0.519-0.256l-2.567-0.388L370.595,522.396z M358.22,527.932
					l-1.076,0.554l-0.962,0.874l-0.764,1.053l-0.833,0.649l-3.445,0.256l-5.68,2.657l-6.439,0.319l-0.986-0.394l-2.143-1.464
					l-0.796,0.066l-0.303,1.214l-0.311,3.948l-0.577,0.837l-0.575,0.62l-0.593,1.422l-0.388,1.597l0.029,1.11l-0.733,0.528
					l-1.091,1.417l-0.559,0.436l-1.719,0.24l-1.713-0.24l-2.172-1.143l-0.886-0.113l-2.274,0.681l-0.788-0.029l0.482-1.626
					l-0.406,0.08l-0.59,0.271l-0.438,0.538l-0.382,0.62l-0.408,0.454l-3.179,0.493l-0.593,0.462l-0.503,0.575l-1.405,2.195
					l0.203,0.769l-0.129,0.137l-0.261,0.104l-0.206,0.611l0.287,2.212l-0.063,0.721l-0.422,0.693l-0.991,0.404l-0.412,0.541
					l-0.184,1.026l0.213,2.195v0.899l-0.522,1.869l-0.78,1.515l-3.611,4.512l-0.319,1.175l-0.098,2.14l0.166,0.634l0.267,0.306
					l-0.005,0.183l-0.648,0.284l-0.52-0.036l-0.936-0.499l-1.494,0.443l-1.708-0.465l-0.891,0.521l-1.731,1.723l-1.706,0.974
					l-1.689,0.122l-1.645-0.871l-1.423-1.248l-0.685-0.034l-1.703,1.73l-2.47,1.232l0.82,0.694l0.303,0.166l-0.385,1.29l0.411,0.887
					l0.822,0.538l0.865,0.24l0.417,0.28l0.501,1.082l0.395,0.433l0.414,0.019l0.775-0.591l0.374-0.114l0.688,0.404l1.595,1.443
					l0.78,0.298l0.833-0.406l0.772-0.567l0.532,0.132l0.135,1.729l-2.064,0.681l-4.955,4.75l-1.908,0.75l-1.956-0.09l-3.774-0.89
					l-1.052,1.188l-1.009,1.493l-0.612,1.265l-0.255,0.356l-0.569,0.546l-1.226,0.721l-2.649,0.78l-1.176,0.663l0.627,0.586
					l0.158,0.656l0.103,0.697l0.48,0.704l1.191,1.327l2.116,2.99l1.17,1.227l1.25,0.665l1.452,0.017l1.052,2.678l0.651,1.22
					l0.856,0.96l0.83,0.327l1.953,0.307l0.728,0.552l0.332,1.355l0.195,3.771l0.662,1.314l0.97,0.596l2.733,0.38l2.96-0.214
					l0.888,0.183l3.589,2.687l0.346,0.543l0.082,0.75l0.161,0.729l0.59,0.416l5.314,1.265l1.075-0.225l2.048-1.62l1.239,0.101
					l-0.548,0.738l0.174,0.119l0.5-0.074l0.409,0.119l0.366,0.733l0.098,0.38l0.219,0.059l0.738-0.175l2.417,0.821l0.828-0.085
					l-1.139-2.398v-0.549l0.361-0.457l1.51-0.887l0.171,0.217l-0.145,0.607l-0.071,0.76l0.013,0.974l-0.061,0.768l0.182,0.33
					l0.683-0.349l0.467-0.517l0.356-0.742l0.131-0.857l-0.221-0.862l0.975-0.496l-0.063-0.438l-0.461-0.401l-0.243-0.33l0.282-0.854
					l0.324-0.554l0.403-0.426l0.566-0.433l2.728-0.72l1.067-0.716l-0.321-1.401l0.688-0.952l-1.771-1.504l0.298-1.183l-1.666-0.831
					l-0.122-0.921l0.24-0.061l0.369,0.118l0.274-0.337l0.063,0.005l0.388-0.794l-0.019-0.045l-0.129-0.132l-0.193-0.438
					l-0.121-0.525l0.074-0.403l0.34-0.185l0.875,0.166l0.403-0.014l1.637-1.248l2.419-3.837l1.455-1.443l1.563-0.137l1.681,0.857
					l3.089,2.604l0.348,0.57l0.456,1.448l0.401,0.235l0.593,0.058l0.311,0.33l1.062,2.932l0.084,1.237l-0.398,0.857l-0.87,0.47
					l1.763,0.913l0.448,0.515l0.227,0.721l0.171,0.823l0.287,0.863l0.828,1.351l0.97,1.143l1.065,0.905l1.081,0.687l0.596,0.061
					l0.401-0.438l0.374-0.549l0.535-0.322l0.593,0.08l0.53,0.298l1.043,0.899l1.131,1.344l0.287,1.512l-0.472,1.562l-1.115,1.448
					l0.527,0.977l-0.063,0.961l-0.77,1.984l0.759,0.633l1.331,1.626l0.704,0.388l0.271-0.164l0.533-0.823l0.258-0.29l0.395-0.087
					l0.762,0.327l0.393,0.05l4.254-1.578l1.378-0.081l0.034,0.155l0.195,0.361l0.297,0.378l0.316,0.222h0.358l1.281-0.47l1.17-0.188
					l0.319-0.304l0.208-0.707l-0.034-0.707l-0.087-0.646l0.061-0.528l0.662-1.137l0.408,0.071l0.382,0.586l0.59,0.416l0.659-0.143
					l0.714-0.363l0.743-0.104l0.764,0.642l0.306-0.586l1.062,0.44l1.489,0.105l1.331,0.476l0.567,1.564l0.641,0.045l3.816,1.431
					l-0.401,0.095l-0.991,0.478v0.544l0.867,0.63l0.785,0.146l1.945-0.166l0.664-0.312l2.117-1.623l1.539-1.636l2.085-1.071
					l0.907-1.146l0.521-1.351l0.433-1.687l0.298-1.755l0.14-1.631l-0.111-3.243l0.3-1.019l0.98-0.377l0.986-0.19l2.146-0.794
					l2.119-0.217l2.896,0.248l0.604,0.631l0.161,0.681l0.385,0.09l0.438-0.211l0.346-0.237l0.342-1.753l0.222-0.084l0.566,0.147
					l0.227-0.063l1.653-1.704l1.323-1.961l0.605-2.443l-0.482-3.254l-1.449-1.564l-2.119,0.604l-2.304,1.364l-2.014,0.753
					l0.538-0.89l1.823-1.483l0.394-0.797l1.384-4.47l-0.367-0.528l0.251-0.551l0.063-0.246l0.053-0.354l-0.636-0.224l-0.309-0.742
					l-0.002-0.992l0.237-1.026l-1.516-0.85l0.318-0.396l1.097-0.212l0.81-0.295l-0.562-0.499l-1.851-0.135l-0.363-0.284
					l-0.451-0.436l-0.554-0.364l-0.695-0.042l0.479-0.518l0.422-0.715l0.147-0.863l-0.372-0.837v-0.575l1.5,0.071l1.344,0.776
					l3.467,3.314l0.856,1.459l0.527,1.974l0.187,2.657l-0.242,1.296l-1.152,1.473l-0.334,1.008l0.087,0.952l0.358,0.961l0.521,0.75
					l0.591,0.321l0.503,1.668l0.47,1.2l0.59,0.612l0.681-0.137l0.624-1.201l0.735-0.406l-0.714-0.944l0.256-0.679l0.658-0.58
					l0.478-0.66l0.188-1.419l-0.346-1.417l0.316-1.037l0.954-1.499l0.253-0.51l0.016-0.459l-0.152-0.34l-0.051-0.471l0.335-0.812
					l-0.311-0.224l-1.576-2.431l-0.211-1.188l-0.293-3.394l-0.345-0.687l-0.839-0.493l-0.588-1.251l-0.779-3.008l-0.132-0.866
					l-0.035-0.738l-0.157-0.496l-0.527-0.2l-0.472-0.265l-0.62-1.203l-0.279-0.293l-5.97,0.998l-1.102-0.108l-0.783-0.615
					l-0.77-0.301l-1.078,0.493l-1.71,1.294l-1.75,0.862l-0.482,0.572l-1.11,1.784l-0.548,0.53l-0.266,0.538l-0.374,0.417
					l-0.627-0.058l-0.126-0.417l-0.05-0.771l-0.206-0.755l-0.606-0.403l1.824-3.381l0.954-1.29l1.299-1.195l1.342-0.733l2.968-0.885
					l1.471-0.738l1.115-1.248l0.714-1.908l0.132-2.406l-0.599-2.739l-0.93-1.396l-1.543-1.388l-1.499-0.401l-0.788,1.47l3.174,3.396
					l0.909,1.853h-0.313l-1.179-1.784l-1.479-0.604l-1.26-0.797l-0.53-2.378l-0.14-1.256l-0.351-1.059l-0.448-0.873l-0.453-0.676
					l-0.396-0.454l-0.788-0.676l-0.313-0.38l-0.303-0.654l-0.335-1.391l-0.216-0.58l-1.01-1.51l-1.183-1.108l-1.331-0.688
					l-1.455-0.248l-0.098-0.602l0.899-3.209l0.1-1.567l-0.374-0.815l-0.643-0.552l-0.741-0.322l-0.662-0.103l-0.925,0.058
					l-0.946-0.129l-0.382-0.763l0.732-1.884l0.33-1.431l0.177-4.858l-0.503-0.932l-1.842-2.063l-0.406-0.222l-0.427-0.662
					l-0.991-0.47l-1.953-0.351l-0.97,0.177l-1.895,0.823l-1.102,0.185l-0.799-0.227l-4.836-2.763l-1.263-0.325l-1.876,1.256
					l-1.197-0.364l-1.792-1.098L358.22,527.932z M463.416,599.734l-0.936,0.51l-1.869,0.443l-2.662,1.602l-1.766,1.678l-1.176,2.304
					l-2.182,5.339l-0.701,0.95l-1.526,1.364l-1.038,1.34l-1.205,0.842l-1.099,0.251l-0.101,0.354l0.056,0.583l-0.166,0.815
					l-0.456,1.243l-0.203,1.108l-0.021,2.549l-0.453,1.502l-1.676,2.38l0.058,1.637l-0.366,0.1l-0.211,0.127l-0.177,0.143
					l-0.264,0.155v0.634l1.188,0.391l1.025-0.691l0.98-0.979l1.062-0.512l0.743,0.285l0.934,1.237l0.727,0.27l0.654-0.243
					l0.593-0.349l0.527,0.096l0.438,1.082l0.65-2.285l0.398-0.603l0.564-0.295l0.785-0.198l0.695-0.335l0.309-0.662l0.715-0.9
					l2.73-1.834l-0.053-1.053l1.423-1.351l1.708-0.93l1.086-1.253l-0.411-2.312l1.362-0.805l0.304-0.309l0.29-0.621l0.269-0.778
					l0.303-0.691l0.377-0.287l0.698-1.485l0.288-0.265l0.453-0.313l-0.068-0.718l-0.309-0.766l-0.261-0.485l-0.38-0.267
					l-0.904-0.118l-0.387-0.246l-0.274-0.57l-0.327-1.417l-0.266-0.63l-0.101-1.156l1.025-3.211l0.285-1.228l-0.817-0.448
					L463.416,599.734z M441.368,630.456l-0.132,0.43l0.327,0.589l0.374-0.074l0.214,0.27l0.205-0.494l0.351-0.997l-0.467-0.153
					L441.368,630.456z M461.441,683.274l-6.378,2.169l-0.878,0.663l0.509,1.24l0.11,1.208l-0.242,2.763l0.011,1.834l-0.098,1.254
					l-0.29,0.837v0.633l0.894,1.111l1.652,3.264l1.013,0.963l0.163,0.618l0.058,0.602l-0.016,0.243l0.037,0.224l-0.063,0.688
					l0.026,0.225l0.147,0.051l0.403-0.108l0.135,0.058l1.652,1.441l0.045,0.261l0.735-0.304l1.094-1.594l0.751-0.366l0.53,0.354
					l-0.264,0.78l-0.569,0.769l-0.39,0.361l-0.111,0.316l-0.081,0.713l-0.035,0.765l0.071,0.476l0.309,0.105l0.4-0.169l0.296-0.27
					l0.016-0.197l1.281,0.578l0.608,0.121l0.527-0.169l3.173-1.911l0.775-0.992l1.753-1.264l0.216,0.095l0.15-0.076l0.045-0.681
					l0.005-0.602l0.031-0.327l0.09-0.228l0.19-0.253l0.951-1.087l1.173-0.929l1.268-0.629l1.226-0.25l1.188-0.671l1.734-3.264
					l1.018-1.124l-0.608-0.468l-0.688-0.15l-1.455,0.063l-0.216-0.11l-0.635-0.423l-0.338-0.1l-0.29,0.192l-0.435,0.812
					l-0.293,0.183l-0.627,0.09l-1.131,0.361l-0.643,0.071l-0.628-0.146l-0.211-0.451l-0.095-0.729l-0.266-0.944l-0.794-0.963
					l-0.047-0.175l-0.172-0.216l0.008-0.513l0.059-0.551l-0.048-0.438l-0.261-0.021l-0.723-0.396l-0.624-0.49l0.05-0.22
					l-0.163-0.453l-0.132-1.009l-0.237-0.989l-0.493-0.451l-1.897-1.085l-0.941-0.039l-3.45-0.594L461.441,683.274z
					 M448.062,693.038v0.555l0.859,1.472l0.312,0.178l1.457-0.101l0.433,0.101l0.482,0.591l1.015,1.907l1.022,0.911l0.501,0.216
					l0.419-0.216l0.25-0.876l-0.271-0.655l-0.442-0.512l-0.231-0.462l-0.175-1.108l-0.469-0.994l-0.672-0.893l-0.749-0.746
					l-0.363-0.322l-0.898,0.127l-0.572-0.034l-0.58-0.33L448.062,693.038z M442.707,738.943l-0.065,0.749l0.313-0.538l0.189-0.029
					l0.33-0.126l0.281-0.736l-0.092-0.314l-0.604-0.132L442.707,738.943z M415.378,810.559l0.16,0.467l-0.171,0.27l-0.021,0.636
					l0.324,0.119l0.021,0.211l0.058,0.016l0.237-0.093l0.2-0.479l-0.026-0.689l0.15-0.588l-0.231-0.183l-0.277-0.031
					L415.378,810.559z M417.35,821.341l-0.229,0.235l0.229,0.453l0.271,0.063l0.211,0.09l-0.032,0.138l0.032,0.076l0.463-0.111
					l0.104-0.234l0.397,0.042l0.488-0.358l-0.475-0.228l-0.611-0.401L417.35,821.341z M447.304,829.444l0.203,0.375l0.113,0.132
					l0.261-0.071l0.313,0.352l0.464-0.079l0.195-0.438l-0.619-0.417l-0.849-0.166L447.304,829.444z M719.342,844.903l-0.348,0.482
					l-0.638,2.185l0.475,0.977l0.706,1.079l0.869,0.887l0.976,0.372l5.814,0.504l1.241-0.53l0.279-0.963l-0.477-1.172l-1.044-1.153
					l-0.546-0.422l-0.484-0.27l-6.165-2.155L719.342,844.903z M448.909,864.992l-0.163,1.006l0.061,1.068l0.403,0.56l0.34-0.396
					l-0.021-0.958l-0.073-0.513l-0.074-0.337l-0.208-0.578L448.909,864.992z M632.076,895.973l-1.099,0.461v0.525l4.085,0.604
					v-0.604l-0.345-0.259l-0.453-0.549l-0.256-0.259v-0.479l0.427-0.333l0.177-0.42l-0.127-0.478l-0.477-0.442l-0.638-0.024
					L632.076,895.973z M616.151,898.236l-1.249,0.868l-1.694,2.111l-1.165,0.958l-1.213,0.155l0.095-0.267l0.132-0.546l0.105-0.256
					l-4.349,2.042l-1.947,1.705l-1.21,2.189l0.896-0.538l0.812-0.348l1.874-0.22l0.571,0.24l1.647,1.172l0.351,0.478l6.489,4.626
					l1.808,0.522l5.52-1.644l0.171-0.375l0.048-0.871l-0.037-1.684l0.119-0.406l0.298-0.377l1.381-1.238l0.791-0.385l1.863-0.552
					l0.171-0.19l0.111-0.208l0.142-0.121l0.225-0.011v-0.591l-1.025-1.607l-0.127-0.045l-0.432,0.105l-0.146-0.061l-0.031-0.203
					l0.063-0.665l-0.032-0.2l-0.599-0.468l-0.524-0.103l-1.228,0.029l-7.544-3.091L616.151,898.236z M368.051,960.626l-0.345,0.33
					l0.158,0.245l0.738,0.583h0.585l0.458-0.467l-0.182-0.195l-0.285,0.093l-0.198-0.014h-0.24l-0.282-0.279l-0.24-0.341
					L368.051,960.626z M365.674,961.824l0.332,0.873l0.438,0.243l0.3-0.572l-0.082-0.565l-0.277-0.258l-0.155-0.093l-0.25-0.209
					l-0.358-0.042L365.674,961.824z M364.936,961.558l-0.11,0.377l-0.034,0.301l0.092,0.214l0.019,0.222l0.032,0.15l0.24-0.008
					l0.243-0.467l-0.016-0.602l-0.253-0.271L364.936,961.558z M367.69,964.043l-0.084,1.066l0.591,0.312l0.485-0.338l0.166-0.668
					l-0.401-0.723l-0.327-0.271L367.69,964.043z M365.329,966.646l-0.021,0.401l0.4,0.422l0.234-0.048l0.082-0.433l-0.171-0.319
					l-0.25-0.189L365.329,966.646z M573.293,979.217l-0.807,0.467l-0.498,0.059l-0.686,0.417l-0.385,0.825l0.464,0.378l0.799-0.214
					l0.643-0.375l0.886-0.977v-0.419l-0.213-0.193L573.293,979.217z M555.415,996.192l-1.065,0.794l-1.03,0.441l-2.211,2.126
					l-0.662,0.141l-0.611,0.013l-0.311,0.327l0.229,1.087l-0.548,0.104l-0.393,0.391l-0.135,0.406l0.2,0.2h4.8l0.406,0.108
					l0.303,0.172l0.332,0.028l0.501-0.309l0.4-0.411l0.056-0.214v-0.296l0.313-1.189l0.225-1.649l0.806-1.386l0.211-0.665
					l-0.822-0.678L555.415,996.192z M559.601,998.322l-0.079,0.53l0.034,0.675l0.053,0.296l0.403-0.944l-0.124-0.724
					L559.601,998.322z M563.957,1001.074l-0.192,0.285l-0.135,0.321l-0.14,0.185l-0.018,0.381l0.129,0.482l-0.085,0.394l-0.16,0.472
					l0.224,0.104l0.453-0.488l0.507-0.75l-0.096-0.963l-0.377-0.493L563.957,1001.074z M574.115,1015.229l-0.485,0.312l-0.521,0.166
					l-0.667,0.045l-0.941-0.517l-0.706-0.203l-0.58,0.203l-0.05,0.939l0.438,1.485l0.335,1.713l-0.354,1.628l0.507-0.019l1.02-0.436
					l0.15-0.116l0.511,0.222l0.617,0.681l0.419,0.148l0.408-0.945l0.383-0.71l0.405-0.433h0.346l0.448,0.206l0.435,0.288
					l1.162,1.185l0.833,0.38l1.537,0.029l0.456,0.192l0.439,0.327h0.332l0.13-0.76l-0.003-0.845l0.053-0.628l0.2-0.499l0.433-0.388
					l-0.185-0.211l-0.264-0.473l-0.234-0.313l0.061-0.731l-2.338-1.188l-0.751-0.73l-0.741,0.047l-0.313,0.111l-0.329,0.358
					l-0.572-0.358l-1.083-0.274l-0.391-0.406L574.115,1015.229z"/>
				<g id="map_dot" transform="translate(623.000000, 760.000000)">
					<circle id="Oval" fill="none" stroke="#FFFFFF" stroke-width="2" cx="63" cy="64" r="61"/>
				</g>
				<g id="map_dot_1_" transform="translate(663.000000, 689.000000)">
					<circle id="Oval_1_" fill="none" stroke="#FFFFFF" stroke-width="2" cx="63" cy="64" r="61"/>
				</g>
				<g id="map_dot_2_" transform="translate(516.000000, 768.000000)">
					<circle id="Oval_2_" fill="none" stroke="#FFFFFF" stroke-width="2" cx="63" cy="64" r="61"/>
				</g>
				<g id="map_dot_3_" transform="translate(499.000000, 676.000000)">
					<circle id="Oval_3_" fill="none" stroke="#FFFFFF" stroke-width="2" cx="63" cy="64" r="61"/>
				</g>
				<g id="map_dot_4_" transform="translate(570.000000, 594.000000)">
					<circle id="Oval_4_" fill="none" stroke="#FFFFFF" stroke-width="2" cx="63" cy="64" r="61"/>
				</g>
				<g id="map_dot_5_" transform="translate(483.000000, 523.000000)">
					<circle id="Oval_5_" fill="none" stroke="#FFFFFF" stroke-width="2" cx="63" cy="64" r="61"/>
				</g>
				<g id="map_dot_6_" transform="translate(464.000000, 391.000000)">
					<circle id="Oval_6_" fill="none" stroke="#FFFFFF" stroke-width="2" cx="63" cy="64" r="61"/>
				</g>
				<g id="map_dot_7_" transform="translate(436.000000, 842.000000)">
					<circle id="Oval_7_" fill="none" stroke="#FFFFFF" stroke-width="2" cx="63" cy="64" r="61"/>
				</g>
				<g id="map_dot_8_" transform="translate(445.000000, 236.000000)">
					<circle id="Oval_8_" fill="none" stroke="#FFFFFF" stroke-width="2" cx="63" cy="64" r="61"/>
				</g>
				<g id="map_dot_9_" transform="translate(388.000000, 267.000000)">
					<circle id="Oval_9_" fill="none" stroke="#FFFFFF" stroke-width="2" cx="63" cy="64" r="61"/>
				</g>
				<g id="map_dot_10_" transform="translate(302.000000, 497.000000)">
					<circle id="Oval_10_" fill="none" stroke="#FFFFFF" stroke-width="2" cx="63" cy="64" r="61"/>
				</g>
			</g>
		</g>
	</g>
</g>
</svg>
